<?xml version="1.0" encoding="UTF-8" standalone="no"?>
<!DOCTYPE svg PUBLIC "-//W3C//DTD SVG 1.1//EN" "http://www.w3.org/Graphics/SVG/1.1/DTD/svg11.dtd">
<svg width="100%" height="100%" viewBox="0 0 397 399" version="1.1" xmlns="http://www.w3.org/2000/svg" xmlns:xlink="http://www.w3.org/1999/xlink" xml:space="preserve" xmlns:serif="http://www.serif.com/" style="fill-rule:evenodd;clip-rule:evenodd;stroke-linejoin:round;stroke-miterlimit:2;">
    <g transform="matrix(1,0,0,1,-511.426012,-226.362795)">
        <g id="Background" transform="matrix(1.373047,0,0,1.373047,-1.724169,19.67217)">
            <path d="M661.472,346.501C659.187,351.364 659.087,351.249 658.906,351.674C627.073,426.46 580.294,422.479 571.551,423.804C566.539,424.563 571.109,439.212 568.506,440.203C567.113,440.732 527.678,407.681 519.607,397.426C516.637,393.652 520.014,393.613 536.336,376.326C549.539,362.343 561.117,351.535 564.805,347.827C572.503,340.087 564.382,362.055 572.511,361.828C605.5,360.905 627.232,369.283 652.411,352.353C659.598,347.521 659.3,344.261 661.472,346.501Z" style="fill:rgb(237,132,33);stroke:rgb(14,14,14);stroke-width:1.46px;"/>
            <path d="M415.594,351.561C403.649,372.618 406.108,377.073 407.14,396.436C407.467,402.573 392.769,378.182 387.72,367.396C359.212,306.495 397.737,285.185 388.416,280.665C375.318,274.314 375.315,273.118 376.081,272.199C376.441,271.767 434.858,248.66 439.496,248.856C441.682,248.948 448.368,281.008 455.775,309.411C455.936,310.028 458.313,319.143 455.545,317.384C450.431,314.133 444.541,307.634 441.663,311.625C437.377,317.57 437.601,317.603 432.155,326.26C424.077,339.099 423.329,338.495 415.594,351.561Z" style="fill:rgb(26,171,208);stroke:rgb(16,15,15);stroke-width:1.46px;"/>
            <path d="M614.236,190.437C608.933,222.074 604.486,254.358 601.521,254.268C599.502,254.206 600.104,252.322 577.538,246.369C565.327,243.148 565.465,242.819 540.485,234.546C540.082,234.413 535.546,232.911 535.953,231.801C536.97,229.028 553.074,228.233 547.252,218.662C529.24,189.058 523.389,169.954 504.095,157.866C503.926,157.76 500.731,155.758 504.473,155.406C572.911,148.975 595.557,194.022 598.478,194.59C602.194,195.314 614.986,183.165 614.774,187.443C614.723,188.456 614.287,189.425 614.236,190.437Z" style="fill:rgb(210,57,147);stroke:black;stroke-width:1.46px;"/>
            <path d="M420.238,402.568C411.648,375.294 433.613,345.182 441.304,335.748C442.866,333.832 443.84,332.769 443.849,332.756C445.245,330.712 445.93,332.061 446.709,334.422C452.973,353.384 459.028,349.032 486.445,368.596C487.017,369.004 487.599,369.422 488.19,369.852C521.559,394.105 500.93,432.867 463.498,430.589C429.831,428.54 422.759,408.375 420.238,402.568Z" style="fill:rgb(24,171,208);stroke:rgb(16,15,15);stroke-width:1.46px;"/>
            <path d="M648.642,338.689C645.279,341.237 635.431,351.078 607.526,350.007C601.541,349.777 608.419,345.721 605.773,338.384C598.587,318.452 583.219,315.104 601.062,286.193C616.678,260.889 618.49,261.39 621.548,241.514C622.177,237.425 635.81,249.138 644.249,263.646C659.143,289.253 667.267,303.824 658.022,326.285C655.221,333.092 649.589,337.883 648.642,338.689Z" style="fill:rgb(239,143,31);stroke:rgb(14,14,14);stroke-width:1.46px;"/>
            <path d="M431.477,190.442C435.674,188.338 436.815,190.457 439.82,186.782C445.749,179.529 449.728,183.518 453.582,175.542C462.233,157.641 492.603,154.23 515.14,186.759C519.975,193.739 527.152,206.681 526.968,207.498C526.22,210.828 524.867,209.102 521.474,209.101C510.765,209.097 506.976,216.419 504.713,215.017C501.244,212.869 503.131,210.35 492.431,205.745C491.463,205.595 490.494,205.446 489.525,205.296C470.809,203.872 475.844,219.131 471.33,216.976C468.538,215.644 468.217,214.976 465.921,216.962C460.634,221.538 439.278,209.832 416.586,221.68C415.537,222.228 406.608,226.89 403.657,228.843C401.3,230.402 401.711,230.776 401.629,230.812C401.235,230.987 400.853,230.286 400.426,230.339C399.695,230.429 399.092,230.968 398.398,231.212C390.738,233.906 390.637,233.016 382.506,233.478L381.481,233.565C379.403,233.007 379.472,232.956 377.343,232.931C376.341,232.795 376.422,232.793 376.341,232.795C375.807,232.806 375.933,233.071 375.383,233.083C375.144,232.153 375.136,232.245 374.459,231.532C376.384,229.736 376.309,229.561 376.533,229.597C377.22,229.704 376.851,230.153 377.5,230.395C377.812,230.511 379.556,231.159 381.586,231.2C401.717,231.605 400.738,227.297 419.66,216.98C422.151,216.027 427.068,212.721 439.504,213.174C452.971,213.665 437.776,210.471 437.507,210.446C413.042,208.218 411.146,220.983 390.491,222.048C389.554,222.096 384.027,222.381 379.801,217.232C375.528,212.026 376.791,211.438 377.969,204.756C380.682,200.051 382.099,199.847 382.64,199.769C384.756,199.464 393.441,196.913 395.862,204.387C397.696,210.049 391.571,213.814 393.022,210.632C395.709,204.743 390.217,202.646 389.506,202.475C376.144,199.275 376.794,222.036 393.496,220.048C407.511,218.38 411.63,211.707 413.614,210.623C419.49,207.411 418.147,198.335 431.477,190.442Z" style="fill:rgb(208,58,147);stroke:black;stroke-width:1.46px;"/>
            <path d="M573.272,374.262C585.522,363.632 588.734,365.843 588.078,367.193C587.351,368.692 582.892,367.348 574.95,378.78C574.416,379.548 568.429,388.166 568.208,388.333C566.947,389.286 565.971,389.18 566.887,390.265C569.609,393.49 570.274,391.479 574.506,390.948C575.515,390.867 576.523,390.787 577.532,390.706C598.769,386.145 593.331,376.69 612.485,366.444C619.646,362.614 612.983,368.628 612.839,368.746C609.904,371.149 599.476,384.943 603.513,384.223C624.514,380.478 642.699,363.148 645.492,360.487C659.361,347.271 636.951,378.557 615.475,388.446C614.536,388.879 605.825,392.89 603.636,393.623C601.241,394.425 605.558,395.464 609.453,396.734C617.713,399.427 627.512,391.223 627.004,394.317C626.787,395.634 619.13,399.86 612.489,400.258C596.793,401.199 596.954,395.96 584.482,398.284C582.141,398.72 572.285,399.075 572.368,399.471C572.396,399.605 581.064,407.032 588.499,409.504C594.9,411.632 603.189,410.698 596.698,412.758C592.915,413.959 578.021,411.111 575.563,409.325C575.189,409.053 572.47,407.077 570.391,406.739C570.093,406.69 569.77,406.59 569.564,406.37C568.271,404.991 567.741,405.932 566.394,404.684C564.598,403.02 564.324,403.652 558.534,401.375C554.572,399.816 548.907,400.198 546.503,400.175C544.498,400.034 542.492,399.894 540.487,399.753C524.567,399.432 521.065,393.483 525.482,393.96C528.511,394.286 547.894,396.378 562.308,384.272C567.996,379.494 567.485,379.011 573.272,374.262Z" style="fill:rgb(154,79,23);"/>
            <path d="M630.17,265.338C630.423,264.844 636.577,252.857 635.112,260.468C632.997,271.457 633.585,271.535 633.368,272.481C632.988,274.136 630.786,283.735 630.481,293.506C630.416,295.594 644.551,291.586 648.487,291.91C649.088,291.959 652.118,292.55 647.224,299.332C644.136,303.612 643.63,303.046 643.392,303.426C642.842,304.301 643.846,304.508 643.207,305.316C643.094,305.46 642.888,305.516 642.787,305.669C629.072,326.355 629.356,326.485 628.114,328.245C618.173,342.336 616.64,345.947 616.314,342.542C616.293,342.327 619.591,324.419 621.102,318.403C621.847,315.439 622.021,315.568 622.44,312.501C622.848,309.52 615.832,312.108 609.544,312.804C602.701,313.561 606.118,309.651 607.499,306.5C608.181,304.945 609.613,304.567 609.618,304.558C610.14,303.568 608.914,303.432 609.616,302.558C611.055,300.765 610.454,300.507 611.748,298.645C614.213,295.1 624.289,274.878 630.17,265.338Z" style="fill:rgb(145,77,22);"/>
            <path d="M521.701,165.307C521.685,164.994 521.238,164.812 521.222,164.5C521.107,162.261 538.812,167.422 551.355,177.681C565.708,189.422 570.635,196.169 570.388,192.478C569.272,175.783 567.878,175.987 567.915,174.538C568.046,169.358 572.786,181.817 575.549,186.482C577.058,189.03 581.039,203.251 588.806,221.355C599.82,247.029 599.708,249.155 597.435,248.795C596.909,248.711 585.369,225.255 570.27,217.892C552.065,209.015 551.029,211.374 549.855,210.078C546.431,206.302 572.768,214.218 572.724,211.542C572.704,210.272 565.202,201.653 564.244,200.791C562.601,199.312 562.398,199.677 560.652,198.269C557.986,196.119 545.921,191.899 540.484,190.534C519.529,185.274 551.281,189.681 551.877,188.665C552.1,188.286 550.07,186.322 549.885,186.143C547.87,184.193 531.223,168.087 521.701,165.307Z" style="fill:rgb(132,27,92);"/>
            <path d="M427.368,207.369L426.5,208.112C426.336,207.881 425.899,208.71 425.735,208.48C425.692,208.419 424.001,197.226 430.435,194.412C434.386,192.684 434.32,192.793 438.58,191.799C441.601,191.095 439.781,185.373 452.501,181.839C458.445,180.187 456.064,177.623 459.876,172.759C469.346,160.677 484.695,164.664 489.28,172.626C491.337,176.198 490.994,176.951 495.468,177.727C504.284,179.256 505.489,188.156 507.547,188.331C510.767,188.605 511.706,187.897 511.482,189.494C511.426,189.89 511.209,189.683 507.257,192.164C504.457,193.922 500.622,179.411 485.484,184.904C475.106,188.669 486.09,182.372 486.285,182.27C497.261,176.55 471.791,167.071 464.808,178.676C462.409,182.663 462.534,182.903 463.783,187.387C464.534,190.084 466.295,191.911 463.519,191.309C462.421,191.071 451.888,188.789 449.483,191.47C446.299,195.02 445.097,194.796 445.752,199.487C446.607,205.614 432.631,192.99 427.368,207.369Z" style="fill:rgb(127,26,88);"/>
            <path d="M459.299,366.373C459.49,366.229 460.919,363.607 463.447,368.525C471.133,383.475 473.346,387.292 473.276,395.493C473.262,397.118 472.097,397.335 472.07,397.432C471.958,397.832 472.557,398.127 472.658,398.53C473.838,403.212 461.979,411.145 456.516,407.463C452.018,404.432 451.641,404.817 450.339,402.596C445.346,394.08 450.302,382.853 459.299,366.373Z" style="fill:rgb(24,118,147);"/>
            <path d="M630.358,269.163C630.854,269.272 631.147,268.236 631.643,268.346C632.61,268.559 625.263,295.961 629.377,296.995C632.415,297.758 646.945,293.08 646.711,295.508C646.68,295.823 624.115,329.408 621.704,333.805C615.088,345.869 627.562,311.113 624.216,308.919C621.152,306.911 607.017,312.521 608.93,308.677C610.285,305.953 610.72,306.202 627.257,275.35C628.91,272.265 628.655,272.199 630.358,269.163Z" style="fill:rgb(254,252,246);"/>
            <path d="M450.614,223.405L450.404,224.356C442.379,223.959 442.472,223.689 434.49,224.102C428.504,224.412 425.997,226.2 424.362,226.105C420.035,225.855 407.603,236.881 409.211,239.937C409.419,240.332 430.772,227.428 452.517,232.419C463.477,234.935 463.491,234.284 474.501,236.494C482.576,238.114 495.41,233.866 497.566,226.523C500.685,215.904 482.832,212.665 487.252,216.63C489.938,219.039 491.494,229.747 478.478,228.545C472.449,227.988 480.218,227.192 480.407,227.173C485.809,226.62 487.806,222.789 486.867,220.294C485.175,215.8 481.469,218.798 480.586,218.269C476.543,215.845 489.182,204.384 499.275,220.544C500,221.704 503.864,227.89 492.2,236.106C472.559,249.94 454.316,225.815 411.61,242.706C409.207,243.657 408.423,245.333 406.489,245.553C404.998,245.723 405.748,244.909 406.005,243.491C406.814,239.03 406.685,239.039 406.836,238.679C410.802,229.225 419.248,225.515 420.68,224.886C426.871,222.98 437.51,219.536 450.614,223.405Z" style="fill:rgb(202,63,146);stroke:black;stroke-width:1.46px;"/>
            <path d="M573.561,377.503C568.282,385.775 562.107,390.849 562.541,392.487C562.799,393.457 569.858,393.438 570.499,393.437C597.663,393.367 596.124,378.85 604.45,374.754C607.201,373.401 600.258,382.122 599.898,382.658C593.473,392.209 616.051,382.585 617.335,382.038C622.407,379.876 645.115,365.328 628.769,377.72C610.222,391.781 592.49,391.994 599.649,395.314C605.543,398.047 605.952,397.19 606.268,397.654C606.615,398.166 606.142,399.941 598.551,397.25C587.514,393.336 587.306,396.27 575.524,396.879C573.489,396.984 571.45,397.033 569.417,397.179C562.567,397.672 581.491,407.975 581.55,408.485C581.914,411.641 570.964,404.291 566.296,401.925C549.425,393.375 533.462,400.64 532.888,396.448C532.294,392.111 535.21,395.926 539.525,395.65C562.597,394.17 568.57,378.507 572.552,377.202C572.886,377.093 573.228,377.612 573.561,377.503Z" style="fill:rgb(252,245,233);"/>
            <path d="M487.544,208.506C484.621,211.249 477.843,209.376 477.86,218.349C477.87,223.49 486.435,217.914 484.594,222.542C482.225,228.499 467.927,219.678 470.57,225.467C474.156,233.324 490.414,232.655 491.409,222.488C491.653,220.001 491.252,218.418 493.498,219.504C499.505,222.407 493.393,236.499 473.469,233.742C458.291,231.641 453.788,228.48 437.527,228.897C434.968,228.963 434.001,229.545 433.917,226.949C438.867,224.928 462.168,228.916 456.725,223.344C454.382,220.945 437.89,218.844 430.515,220.644C423.476,222.361 423.435,221.582 422.152,221.083C438.688,217.35 438.818,217.08 455.533,220.048C465.75,221.862 465.775,217.831 469.648,219.075C470.101,219.221 475.252,220.875 475.568,218.54C475.701,217.556 474.982,210.375 483.554,207.743C485.599,207.115 488.177,207.59 488.209,207.869C488.244,208.174 487.509,208.201 487.544,208.506Z" style="fill:rgb(251,238,249);"/>
            <path d="M459.262,153.799C459.715,154.004 460.168,154.208 460.62,154.413C460.673,154.622 461.168,154.443 461.221,154.652C462.265,158.771 455.806,153.671 446.166,166.243C444.429,168.694 444.786,168.852 443.081,171.276C437.122,179.749 435.398,178.06 422.509,177.181C420.555,176.786 419.94,177.54 419.34,175.558C416.933,167.61 431.025,167.401 432.766,161.67C433.119,161.038 435.016,157.633 438.834,154.96C448.894,147.916 457.17,152.947 459.262,153.799Z" style="fill:rgb(208,59,148);stroke:black;stroke-width:1.46px;"/>
            <path d="M463.443,373.534C464.747,376.157 476.574,395.184 467.394,403.38C462.466,407.78 442.004,408.072 454.748,380.622C459.464,370.464 460.556,367.805 462.082,370.751C462.516,371.589 462.392,371.547 462.784,372.343C462.832,372.441 462.784,372.343 463.443,373.534Z" style="fill:rgb(250,254,254);"/>
            <path d="M430.264,304.48C430.011,305.031 429.758,305.582 429.504,306.133C426.023,301.128 425.936,296.195 422.817,285.378C420.617,277.746 413.283,298.307 412.815,299.618C405.993,318.746 414.695,332.729 409.509,325.494C408.761,323.357 407.127,312.951 403.842,322.622C403.63,323.247 403.898,323.31 401.779,330.599C401.598,331.624 397.29,359.606 398.708,337.519C399.231,329.382 405.113,314.421 402.559,314.231C399.01,313.968 399.401,315.1 392.322,320.169C391.373,320.848 391.376,320.27 390.533,319.505C394.548,314.279 399.407,313.182 405.359,308.331C406.712,307.228 407.704,306.42 414.424,288.491C415.642,285.241 405.997,290.268 405.472,290.386C402.144,291.137 405.227,288.193 405.797,287.977C423.885,281.133 422.805,272.174 430.724,263.793C440.065,253.907 419.687,274.837 430.264,304.48Z" style="fill:rgb(224,249,251);"/>
            <path d="M558.102,191.439C556.093,187.867 539.1,174.074 537.362,172.663C529.977,166.668 539.471,171.991 539.63,172.09C554.483,181.317 570.726,199.881 572.399,199.248C574.141,198.589 570.695,181.438 573.813,188.029C575.56,191.721 573.96,192.353 592.638,235.49C597.033,245.641 587.934,229.048 583.413,224.588C572.486,213.81 560.893,214.153 568.549,213.726C571.119,213.583 580.924,218.777 575.713,211.342C574.868,210.136 566.738,196.701 557.271,193.885C557.548,193.07 557.825,192.254 558.102,191.439Z" style="fill:rgb(253,243,251);"/>
            <path d="M402.785,292.888C391.292,297.896 385.863,305.273 387.667,300.517C389.183,296.518 415.085,280.97 415.528,280.534C416.303,279.77 420.757,275.383 423.7,269.661C423.906,269.26 424.122,269.578 427.516,265.514C433.621,258.203 434.905,256.333 435.485,255.489C435.631,255.275 438.753,250.728 438.574,254.506C438.574,254.513 433.989,262.72 433.421,266.486C432.861,270.191 429.497,272.572 429.621,287.495C429.68,294.59 429.225,294.573 430.678,301.481C430.621,301.717 430.744,301.712 430.264,304.48C419.687,274.837 440.065,253.907 430.724,263.793C422.805,272.174 423.885,281.133 405.797,287.977C405.227,288.193 402.144,291.137 405.472,290.386C405.997,290.268 415.642,285.241 414.424,288.491C407.704,306.42 406.712,307.228 405.359,308.331C399.407,313.182 394.548,314.279 390.533,319.505C390.557,319.94 389.647,320.051 389.671,320.486C389.712,321.244 390.549,321.806 390.662,321.883C391.234,322.267 391.288,321.573 391.822,321.932C385.771,327.533 386.939,328.309 383.51,334.513C380.553,339.864 382.095,322.765 394.418,313.399C394.649,313.224 394.63,313.363 397.41,311.368C399.477,309.885 399.377,309.871 401.455,308.44C401.842,308.174 402.118,307.724 402.56,307.567C404.756,306.787 404.668,306.666 405.63,304.575C406.144,303.459 412.291,290.099 410.871,290.135C407.888,290.212 408.089,290.798 405.325,292.081C403.668,291.795 403.657,291.692 403.535,291.772C403.161,292.019 403.159,292.641 402.785,292.888Z" style="fill:rgb(20,121,149);"/>
            <path d="M462.501,418.471C451.326,418.897 447.029,414.568 443.858,412.251C443.633,412.088 443.565,411.766 443.513,411.494C441.931,403.318 448.219,408.066 448.601,408.354C454.628,412.904 469.433,412.594 474.55,409.627C477.558,407.883 479.979,407.983 477.652,405.402C473,400.241 485.114,401.591 485.596,406.461C486.139,411.956 482.775,411.955 482.356,412.337C482.242,412.442 483.102,412.99 480.552,414.575C473.456,418.986 466.727,418.385 465.492,418.275C464.495,418.34 463.498,418.405 462.501,418.471Z" style="fill:rgb(19,118,147);"/>
            <path d="M437.987,349.85C440.448,345.341 441.542,344.298 441.956,343.904C442.678,343.215 443.965,343.1 448.585,354.469C454.095,368.03 442.595,371.35 438.671,369.056C429.66,363.786 436.48,353.084 437.987,349.85Z" style="fill:rgb(21,115,143);"/>
            <path d="M418.853,263.728C418.592,264.413 413.492,281.197 408.602,280.803C407.465,280.711 407.519,280.818 406.501,281.31C404.998,282.036 393.222,277.473 405.404,267.399C407.89,265.342 408.288,265.992 410.64,263.81C410.824,263.64 411.046,264.13 413.52,262.56C414.819,261.736 422.529,259.748 418.853,263.728Z" style="fill:rgb(20,111,137);"/>
            <path d="M429.504,306.133C430.145,306.6 430.786,307.067 431.427,307.534C437.198,330.517 426.625,304.946 426.5,304.5C426.177,303.354 426.004,303.435 421.795,290.374C421.321,288.904 421.92,287.672 420.484,288.423C418.15,289.643 414.928,299.495 414.593,300.518C413.526,303.78 413.584,304.207 413.629,304.535C413.9,306.518 411.22,306.441 413.304,329.552C413.578,332.59 415.854,337.927 416.153,338.627C419.85,347.295 413.755,338.578 413.676,338.395C410.684,331.389 410.228,331.688 407.432,324.55L409.509,325.494C414.695,332.729 405.993,318.746 412.815,299.618C413.283,298.307 420.617,277.746 422.817,285.378C425.936,296.195 426.023,301.128 429.504,306.133Z" style="fill:rgb(20,122,151);"/>
            <path d="M428.288,200.808C428.516,199.945 429.701,195.465 437.502,194.519C444.99,193.612 441.412,186.645 452.478,184.392C461.191,182.618 457.429,177.991 464.013,172.004C476.335,160.802 492.166,175.379 482.508,171.471C476.337,168.975 468.996,171.492 465.842,173.964C460.128,178.442 460.787,179.244 460.85,186.535C460.867,188.528 457.058,187.331 456.509,187.328C442.625,187.264 444.296,197.931 441.506,197.929C437.039,197.925 436.798,196.793 428.288,200.808Z" style="fill:rgb(253,237,252);"/>
            <path d="M495.381,399.102C495.08,399.17 494.8,398.755 494.5,398.823C493.662,399.012 493.642,399.408 493.638,399.496C493.601,400.251 494.452,399.787 494.415,400.553C498.666,405.176 497.135,405.871 496.511,410.506C496.438,411.046 493.569,414.385 492.279,415.172C490.111,416.492 482.336,419.419 481.457,419.75C480.472,419.096 479.514,419.117 480.459,418.481C482.773,416.924 482.719,416.958 482.778,416.926C483.865,416.333 495.794,409.836 490.497,403.502C489.942,402.84 483.505,399.623 482.519,399.427C470.324,397.002 489.284,397.512 489.177,395.548C489.158,395.201 488.943,394.866 488.996,394.523C489.806,389.237 508.993,400.929 495.381,399.102Z" style="fill:rgb(17,129,161);"/>
            <path d="M390.533,319.505C391.376,320.27 391.373,320.848 392.322,320.169C399.401,315.1 399.01,313.968 402.559,314.231C405.113,314.421 399.231,329.382 398.708,337.519C397.29,359.606 401.598,331.624 401.779,330.599C402.092,331.58 402.405,332.56 402.718,333.541C396.282,366.254 403.24,366.631 402.036,369.219C401.55,370.264 398.891,369.992 397.754,355.473C397.618,353.746 396.799,343.541 396.715,342.503C397.24,340.572 397.292,340.594 396.845,338.589C398.996,323.405 400.049,323.654 400.591,318.489C400.748,316.996 399.928,317.462 399.509,317.401C397.534,317.115 398.023,318.44 391.822,321.932C391.288,321.573 391.234,322.267 390.662,321.883C390.549,321.806 389.712,321.244 389.671,320.486C389.647,320.051 390.557,319.94 390.533,319.505Z" style="fill:rgb(15,123,152);"/>
            <path d="M384.509,343.502C384.586,343.319 389.652,325.037 392.548,339.478C393.246,342.96 396.299,354.16 391.518,355.556C383.493,357.901 384.431,344.615 384.509,343.502Z" style="fill:rgb(22,118,144);"/>
            <path d="M508.504,166.478C520.402,174.846 524.292,185.232 524.471,186.493C522.911,188.266 522.927,188.268 520.714,189.123C515.93,183.773 516.845,183.143 512.15,177.798C507.498,172.502 504.552,170.321 503.667,169.427C505.082,167.488 505.366,167.959 508.504,166.478Z" style="fill:rgb(252,249,253);"/>
            <path d="M437.261,357.414C441.486,348.105 441.02,347.402 442.508,347.425C442.91,347.432 447.614,357.326 447.801,359.452C448.704,369.727 433.907,370.257 437.261,357.414Z" style="fill:rgb(246,254,254);"/>
            <path d="M440.338,274.951C440.621,275.179 440.905,275.406 441.188,275.634C445.335,289.49 446.47,289.296 446.118,290.499C446.051,290.727 445.299,293.294 445.239,293.345C436.416,300.835 434.438,285.425 435.68,283.555C436.36,282.531 436.552,282.631 436.386,281.462C436.377,281.393 436.628,279.431 437.641,277.561C439.493,274.144 440.337,274.952 440.338,274.951Z" style="fill:rgb(22,122,149);"/>
            <path d="M422.02,302.715C422.278,303.87 424.673,309.046 424.68,310.449C424.687,311.658 424.776,311.575 425.422,312.522C425.602,312.787 425.668,313.144 425.627,313.462C425.574,313.869 425.027,314.207 425.152,314.599C425.168,314.648 426.611,314.911 426.327,317.449C425.537,324.507 411.864,323.509 417.4,306.455C417.553,305.982 419.443,300.162 421.357,301.664C421.683,301.92 421.694,302.46 422.02,302.715Z" style="fill:rgb(20,118,146);"/>
            <path d="M440.398,401.931C424.779,406.242 446.35,423.705 456.638,421.007C460.119,421.226 460.006,421.413 463.51,421.796C468.57,422.347 473.681,420.563 477.298,420.814C476.968,423.04 474.915,423.816 460.498,425.547C460.062,425.321 459.931,424.694 459.495,424.468C458.217,423.805 444.8,423.233 435.67,414.314C429.33,408.12 434.162,398.197 440.398,401.931Z" style="fill:rgb(86,179,201);"/>
            <path d="M471.396,413.07C474.038,412.148 481.162,410.642 480.197,405.4C479.914,403.862 482.07,404.916 482.159,404.988C489.438,410.857 466.896,422.548 447.709,413.14C444.461,411.547 444.247,407.81 446.552,409.408C455.4,415.541 462.617,414.333 471.396,413.07Z" style="fill:rgb(215,250,251);"/>
            <path d="M435.417,397.136C440.358,396.538 441.225,396.118 443.335,400.562C444.037,402.04 442.934,401.59 441.426,402.195L440.398,401.931C434.162,398.197 429.33,408.12 435.67,414.314C444.8,423.233 458.217,423.805 459.495,424.468C459.931,424.694 460.062,425.321 460.498,425.547C453.665,424.742 450.064,425.626 439.481,419.534C426.691,412.172 430.994,404.082 432.693,402.598C434.64,400.897 432.445,400.468 432.423,400.276C436.637,398.34 435.35,397.289 435.417,397.136Z" style="fill:rgb(18,134,166);"/>
            <path d="M406.545,278.862C392.476,277.202 418.323,258.685 415.534,266.51C411.209,278.646 408.582,278.191 406.545,278.862Z" style="fill:rgb(243,254,253);"/>
            <path d="M463.515,157.913C464.003,158.476 464.623,158.18 465.042,161.118C452.329,168.982 454.313,170.988 450.618,175.715C450.135,176.333 450.083,176.171 449.529,176.642C448.942,166.311 449.446,166.31 449.855,165.807C454.311,160.344 463.06,158.08 463.515,157.913Z" style="fill:rgb(252,248,253);"/>
            <path d="M390.918,343.414C392.834,353.568 390.316,353.471 389.561,353.23C383.68,351.353 388.457,333.433 390.257,339.579C390.622,340.824 390.553,342.169 390.918,343.414Z" style="fill:rgb(233,254,253);"/>
            <path d="M440.398,401.931L441.426,402.195C440.878,402.554 435.806,405.87 437.601,409.445C441.478,417.166 453.147,419.861 456.638,421.007C446.35,423.705 424.779,406.242 440.398,401.931Z" style="fill:rgb(22,129,159);"/>
            <path d="M527.524,191.437C529.097,193.6 531.903,196.928 532.012,201.296C530.559,202.83 530.676,202.9 528.853,204.019C527.864,202.144 525.229,198.602 524.311,194.473C525.624,192.637 525.572,192.666 527.524,191.437Z" style="fill:rgb(253,251,254);"/>
            <path d="M422.873,312.376C425.903,321.745 419.966,318.811 419.566,318.431C416.344,315.374 419.968,300.768 421.593,307.458C422.201,309.963 422.225,309.884 422.873,312.376Z" style="fill:rgb(236,254,253);"/>
            <path d="M441.848,284.352C442.099,284.977 445.986,294.65 440.435,292.649C435.913,291.019 437.977,272.351 441.239,282.598C441.427,283.188 441.66,283.763 441.848,284.352Z" style="fill:rgb(235,254,253);"/>
            <path d="M388.458,240.426C387.914,240.781 382.321,244.431 385.862,248.111C386.295,248.56 386.961,250.109 391.511,247.288C392.067,247.393 392.623,247.498 393.179,247.603C393.21,248.222 393.241,248.841 393.272,249.46C392.645,249.962 387.328,254.219 383.259,248.652C380.754,245.226 386.285,238.743 387.389,239.263C387.865,239.487 387.981,240.202 388.458,240.426Z" style="fill:rgb(192,68,143);"/>
            <path d="M489.798,209.374C490.971,206.657 494.195,208.479 497.111,210.963C499.772,213.228 502.177,216.043 502.539,216.466C503.639,217.754 505.618,218.993 502.502,219.519C498.603,217.98 498.691,213.252 492.378,210.78C491.3,210.358 491.154,210.694 489.798,209.374Z" style="fill:rgb(252,238,252);"/>
            <path d="M495.37,405.526C495.759,414.107 489.453,414.89 490.722,412.577C491.461,411.228 496.907,406.037 489.638,401.252C489.448,401.127 485.152,398.299 488.489,398.65C492.589,399.081 495.062,404.812 495.37,405.526Z" style="fill:rgb(163,230,240);"/>
            <path d="M430.101,229.093C425.122,231.786 424.681,230.52 419.574,232.895C405.817,239.291 430.095,221.826 430.101,229.093Z" style="fill:rgb(249,225,246);"/>
            <path d="M407.432,324.55C407.278,324.255 407.593,323.846 407.439,323.551C405.695,320.207 404.226,326.904 402.718,333.541C402.405,332.56 402.092,331.58 401.779,330.599C403.898,323.31 403.63,323.247 403.842,322.622C407.127,312.951 408.761,323.357 409.509,325.494L407.432,324.55Z" style="fill:rgb(22,117,144);"/>
            <path d="M502.208,185.072C497.583,182.545 497.598,182.539 492.404,181.711C484.94,180.521 501.59,177.496 502.208,185.072Z" style="fill:rgb(215,153,197);"/>
            <path d="M435.417,397.136C435.35,397.289 436.637,398.34 432.423,400.276C429.795,401.252 424.809,406.524 427.613,400.538C428.215,399.879 434.781,397.378 435.417,397.136Z" style="fill:rgb(6,127,163);"/>
            <path d="M558.102,191.439C557.825,192.254 557.548,193.07 557.271,193.885C550.105,191.606 547.39,191.485 549.61,190.729C551.591,190.055 554.882,191.987 558.102,191.439Z" style="fill:rgb(207,146,189);"/>
            <path d="M432.207,394.827C429.309,398.424 423.587,396.818 427.418,395.354C430.324,394.244 430.321,394.403 432.207,394.827Z" style="fill:rgb(146,219,228);"/>
            <path d="M493.542,395.358C493.693,395.431 499.754,398.48 493.505,397.452C493.339,397.425 488.087,395.66 493.542,395.358Z" style="fill:rgb(152,222,231);"/>
            <path d="M430.678,301.481C431.449,304.491 431.505,304.406 431.427,307.534C430.786,307.067 430.145,306.6 429.504,306.133C429.758,305.582 430.011,305.031 430.264,304.48C430.744,301.712 430.621,301.717 430.678,301.481Z" style="fill:rgb(27,149,182);"/>
            <path d="M377.343,232.931C379.472,232.956 379.403,233.007 381.481,233.565C380.434,233.657 380.49,233.697 378.693,234.059C377.875,233.602 378.084,233.409 377.343,232.931Z" style="fill:rgb(96,48,120);"/>
            <path d="M381.481,233.565L382.506,233.478C381.235,233.672 379.964,233.865 378.693,234.059C380.49,233.697 380.434,233.657 381.481,233.565Z" style="fill:rgb(88,51,122);"/>
            <path d="M462.501,418.471C463.498,418.405 464.495,418.34 465.492,418.275C463.977,418.844 464.025,418.891 462.501,418.471Z" style="fill:rgb(24,144,177);"/>
            <path d="M495.381,399.102L494.415,400.553C494.452,399.787 493.601,400.251 493.638,399.496C493.642,399.408 493.662,399.012 494.5,398.823C494.8,398.755 495.08,399.17 495.381,399.102Z" style="fill:rgb(40,161,198);"/>
            <path d="M396.845,338.589C397.292,340.594 397.24,340.572 396.715,342.503C396.758,341.198 396.802,339.893 396.845,338.589Z" style="fill:rgb(26,148,180);"/>
            <path d="M402.785,292.888C403.159,292.641 403.161,292.019 403.535,291.772C403.657,291.692 403.668,291.795 405.325,292.081L402.785,292.888Z" style="fill:rgb(28,153,186);"/>
            <path d="M489.525,205.296C490.494,205.446 491.463,205.595 492.431,205.745C490.909,206.11 490.982,205.809 489.525,205.296Z" style="fill:rgb(158,38,112);"/>
        </g>
    </g>
</svg>
