<?xml version="1.0" encoding="UTF-8" standalone="no"?>
<!DOCTYPE svg PUBLIC "-//W3C//DTD SVG 1.1//EN" "http://www.w3.org/Graphics/SVG/1.1/DTD/svg11.dtd">
<svg width="100%" height="100%" viewBox="0 0 42 19" version="1.1" xmlns="http://www.w3.org/2000/svg" xmlns:xlink="http://www.w3.org/1999/xlink" xml:space="preserve" xmlns:serif="http://www.serif.com/" style="fill-rule:evenodd;clip-rule:evenodd;stroke-linejoin:round;stroke-miterlimit:2;">
    <g transform="matrix(1,0,0,1,-0.000035,0.000018)">
        <g transform="matrix(0.182715,0,0,0.185935,-0.412353,-0.707027)">
            <path d="M122.53,6.708C135.467,6.106 140.105,6.131 152.491,6.638C153.172,6.797 153.854,6.957 154.535,7.116C155.086,7.203 155.044,7.189 160.45,7.827C163.491,8.689 163.311,8.921 166.491,9.54C175.51,11.295 194.408,19.975 194.795,22.413C194.854,22.784 195.543,27.127 197.441,26.283C200.74,24.815 200.714,26.184 203.292,28.706C214.25,42.11 215.105,42.012 216.591,41.841C217.064,41.787 218.28,41.647 221.682,38.756C227.416,34.487 231.601,29.21 232.042,36.477C232.193,38.97 230.769,49.393 230.616,50.511C230.427,52.062 230.71,52.578 229.679,56.524C228.982,59.44 229.654,59.899 227.747,60.818C227.592,60.892 227.63,60.926 226.173,62.282C224.865,65.409 225.42,65.798 228.288,67.477C228.141,68.494 227.995,69.511 227.849,70.529C224.789,83.179 223.035,94.431 222.708,96.526C221.478,102.684 221.129,105.463 215.385,102.753C214.382,102.279 208.857,99.672 202.411,97.848C198.621,96.674 192.534,95.268 184.432,92.803C182.091,92.132 179.75,91.461 177.409,90.79C175.907,90.334 159.08,85.228 158.616,85.131C155.252,84.037 154.212,84.925 153.397,81.467C157.218,77.158 168.462,75.042 166.077,70.694C165.696,70 162.858,64.825 160.894,62.27C157.103,55.643 157.151,55.73 152.937,49.271C152.597,48.935 152.257,48.599 151.917,48.263C151.61,46.201 151.407,46.338 150.701,44.422C148.985,37.382 146.999,38.425 144.924,34.261C142.468,29.334 141.799,29.94 138.24,25.724C131.377,17.594 118.646,11.075 116.754,10.107C112.661,8.01 121.3,6.927 122.53,6.708L193.533,47.431C192.09,47.41 191.575,47.021 191.453,48.477C191.453,48.477 190.812,49.617 190.756,49.716L190.28,50.193C188.214,53.185 191.18,53.215 191.179,56.778C191.979,57.017 192.075,56.665 192.737,57.245C198.43,62.238 195.745,64.693 195.256,65.141C195.145,65.315 192.035,66.454 195.458,67.577C198.745,68.656 198.638,68.728 201.35,70.835C204.469,73.257 203.627,77.507 205.493,76.489C206.212,76.096 206.025,74.765 206.745,74.372C205.543,71.939 205.516,72.028 204.5,69.5C203.313,68.612 203.501,68.531 202.853,67.254C202.495,67.108 202.052,67.45 201.694,67.305C201.021,67.031 196.703,59.72 196.889,53.288C195.608,52.106 195.117,52.332 195.171,50.527C195.004,49.474 194.838,48.421 194.671,47.369L193.533,47.431L122.53,6.708L180.506,61.483C180.756,63.077 180.707,63.009 180.546,64.536C181.556,64.332 181.454,63.737 182.432,64.155C188.192,66.621 195.937,65.619 202.964,76.128C213.575,91.997 211.53,93.138 212.679,94.322C219.758,101.617 208.106,78.954 206.745,74.372C206.025,74.765 206.212,76.096 205.493,76.489C203.627,77.507 204.469,73.257 201.35,70.835C198.638,68.728 198.745,68.656 195.458,67.577C192.035,66.454 195.145,65.315 195.256,65.141C193.595,64.399 193.606,64.402 193.462,64.34C192.919,64.106 192.979,64.233 192.455,64.008C183.352,61.859 183.365,61.913 182.462,61.581L180.506,61.483L122.53,6.708L156.789,25.091C157.401,25.506 158.012,25.922 158.623,26.337C159.713,27.266 159.618,27.203 159.713,27.266C167.922,32.772 167.047,33.64 167.753,34.104C168.298,34.605 168.843,35.107 169.389,35.608C169.559,35.49 171.514,34.134 171.514,34.134C171.514,34.134 173.593,36.095 173.773,36.266C173.762,35.582 173.75,34.898 173.738,34.215C169.618,30.842 169.246,31.428 165.317,27.742C162.935,25.677 152.598,19.142 150.47,19.39C146.668,19.832 153.076,22.803 156.789,25.091L122.53,6.708L173.738,34.215C173.75,34.898 173.762,35.582 173.773,36.266C174.367,36.627 174.961,36.989 175.555,37.351C175.831,37.578 176.353,37.117 176.629,37.345C176.98,37.634 176.374,38.044 180.297,41.689C182.51,43.744 182.86,43.775 182.388,46.851C182.597,47.006 185.001,48.781 185.001,48.781C185.131,49.202 184.063,49.408 184.194,49.829C187.925,53.602 188.059,53.381 190.407,56.57L191.179,56.778C191.18,53.215 188.214,53.185 190.28,50.193C187.159,49.026 187.848,48.36 187.739,48.203C186.821,46.913 181.956,40.071 173.738,34.215L122.53,6.708L153.529,40.501C153.897,42.093 154.265,43.685 154.634,45.277L155.549,45.623C156.41,44.142 155.727,43.961 156.526,42.517C157.442,40.86 169.798,43.462 170.467,43.683C171.113,42.856 171.758,42.03 172.403,41.204C162.972,39.973 162.323,39.862 161.452,39.714C154.444,38.523 154.073,39.141 153.756,39.668C153.608,39.915 153.678,40.254 153.529,40.501L122.53,6.708L180.506,61.483C173.874,59.786 172.376,58.006 170.73,60.59C168.589,63.951 173.179,62.37 174.887,66.2C175.46,66.407 176.033,66.613 176.606,66.819C178.917,66.16 179.017,66.349 180.546,64.536C180.707,63.009 180.756,63.077 180.506,61.483L122.53,6.708L169.389,35.608C171.174,37.475 170.833,37.884 173.331,38.637C175.261,39.509 175.228,39.536 176.223,41.462C176.535,43.251 176.469,43.267 176.56,43.395C177.155,44.231 177.563,43.212 178.298,43.908C178.591,44.185 180.23,45.738 182.388,46.851C182.86,43.775 182.51,43.744 180.297,41.689C176.374,38.044 176.98,37.634 176.629,37.345C176.353,37.117 175.831,37.578 175.555,37.351C174.961,36.989 174.367,36.627 173.773,36.266C173.593,36.095 171.514,34.134 171.514,34.134C171.514,34.134 169.559,35.49 169.389,35.608L122.53,6.708L190.795,43.471C192.152,44.176 192.621,43.846 192.733,45.399C192.745,45.573 192.805,46.408 193.533,47.431L194.671,47.369L194.861,46.379C193.575,42.559 190.776,32.935 189.773,31.238C186.208,25.203 189.175,37.07 189.298,37.562C189.416,38.035 190.579,42.683 190.795,43.471L122.53,6.708L172.403,41.204C171.758,42.03 171.113,42.856 170.467,43.683C180.125,45.126 180.923,47.237 184.194,49.829C184.063,49.408 185.131,49.202 185.001,48.781C185.001,48.781 182.597,47.006 182.388,46.851C180.23,45.738 178.591,44.185 178.298,43.908C177.563,43.212 177.155,44.231 176.56,43.395C176.469,43.267 176.535,43.251 176.223,41.462L173.49,41.462L172.403,41.204L122.53,6.708L170.417,20.998L169.743,21.753C169.731,21.89 168.418,22.149 170.531,24.43C173.167,23.77 173.093,24.92 175.828,24.731C176.866,24.66 178.445,17.125 175.602,19.635C174.537,20.576 174.757,21.886 170.417,20.998L122.53,6.708L196.889,53.288C196.703,59.72 201.021,67.031 201.694,67.305C202.052,67.45 202.495,67.108 202.853,67.254C202.766,65.437 198.518,55.67 198.089,54.684C198.033,54.555 198.086,54.641 196.889,53.288L122.53,6.708L165.734,24.238L167.478,24.813C168.165,24.686 168.851,24.559 169.537,24.432C168.171,23.248 168.08,23.483 166.701,22.194C165.165,20.758 164.258,16.162 163.502,16.536C160.305,18.115 165.308,23.758 165.734,24.238L122.53,6.708L177.449,29.526C181.889,34.369 181.864,34.319 182.238,34.745C187.873,41.148 182.729,27.561 177.606,28.683C177.327,28.744 177.728,29.465 177.449,29.526L122.53,6.708L190.407,56.57C194.147,61.817 195.042,62.861 192.455,64.008C192.979,64.233 192.919,64.106 193.462,64.34C193.606,64.402 193.595,64.399 195.256,65.141C195.745,64.693 198.43,62.238 192.737,57.245C192.075,56.665 191.979,57.017 191.179,56.778L190.407,56.57L122.53,6.708L179.031,73.964C179.733,74.81 181.543,77.643 182.462,77.174C186.008,75.363 175.253,68.123 176.709,72.416C176.781,72.628 176.898,72.496 179.031,73.964L122.53,6.708L219.616,71.476C219.91,67.925 219.663,67.876 219.376,67.819C217.945,67.534 214.703,65.141 215.631,68.46C216.366,71.089 217.179,70.366 219.616,71.476L122.53,6.708L183.839,70.26C183.823,70.848 183.674,76.051 186.666,77.049C186.851,77.111 189.278,77.83 187.356,74.717C185.663,72.654 185.561,72.796 184.552,70.246L183.839,70.26L122.53,6.708L152.708,29.799C152.218,29.712 151.981,29.021 151.492,28.934C150.573,28.771 150.669,29.354 149.685,29.08C148.019,28.617 147.51,28.769 147.622,30.492C147.784,32.985 148.932,31.889 151.597,32.482C151.967,31.587 152.337,30.693 152.708,29.799L122.53,6.708L152.708,29.799C152.337,30.693 151.967,31.587 151.597,32.482C152.71,37.017 156.717,30.931 154.446,29.591C154.325,29.52 154.317,29.607 152.708,29.799L122.53,6.708L220.794,57.285C223.355,57.395 223.992,57.04 223.526,54.494C223.105,52.194 219.721,53.275 220.121,54.423C220.285,54.893 221.089,55.003 221.16,55.496C221.175,55.597 220.692,55.235 220.425,56.539C220.319,57.059 220.89,56.817 220.794,57.285L122.53,6.708L190.795,43.471C190.651,45.524 190.747,45.424 190.312,47.385C190.46,48.162 190.608,48.939 190.756,49.716C190.812,49.617 191.453,48.477 191.453,48.477C191.575,47.021 192.09,47.41 193.533,47.431C192.805,46.408 192.745,45.573 192.733,45.399C192.621,43.846 192.152,44.176 190.795,43.471L122.53,6.708L168.998,52.715C169.046,53.072 169.477,56.325 171.506,56.449C171.836,56.469 174.574,55.07 169.646,52.754L168.998,52.715L122.53,6.708L173.514,49.398C172.515,50.111 172.79,50.379 171.648,50.729C171.519,50.769 171.504,50.988 171.375,51.028C174.032,52.122 177.148,54.623 175.83,51.402C175.295,50.094 175.06,50.406 173.514,49.398L122.53,6.708L181.461,56.51C178.407,53.29 177.813,56.594 178.644,57.324C180.101,58.604 180.5,58.18 181.461,56.51L122.53,6.708L173.331,38.637C173.607,40.408 173.618,40.395 173.629,40.55C173.663,41.042 173.455,40.965 173.49,41.462L176.223,41.462C175.228,39.536 175.261,39.509 173.331,38.637L122.53,6.708L176.095,63.738C178.515,67.268 179.283,61.941 177.741,62.003C177.55,62.01 177.622,62.129 176.095,63.738L122.53,6.708L196.011,48.695C195.731,49.306 195.451,49.916 195.171,50.527C195.117,52.332 195.608,52.106 196.889,53.288C196.531,50.889 196.71,50.934 196.011,48.695L122.53,6.708L204.869,91.287C203.714,90.656 203.704,89.976 202.713,90.768C201.74,91.546 204.562,95.53 204.869,91.287L122.53,6.708L188.257,73.284C189.173,74.546 189.102,74.518 190.467,75.405C190.684,74.87 190.901,74.335 191.118,73.8C189.787,72.833 189.725,72.465 188.257,73.284L122.53,6.708L183.839,70.26L184.552,70.246C185.696,69.623 186.395,69.535 185.466,68.535C185.337,68.396 183.067,66.404 183.839,70.26L122.53,6.708Z" style="fill:rgb(143,19,56);fill-opacity:0.93;"/>
            <path d="M104.452,14.732C106.181,15.422 107.385,16.077 107.631,16.212C109.833,17.41 110.454,14.647 117.339,17.814C120.806,19.408 120.025,22.477 121.517,22.393C123.712,22.27 123.868,21.895 125.518,23.481C125.086,23.542 120.78,24.146 122.867,28.252C123.335,29.173 123.598,28.706 125.582,28.624C125.925,28.61 126.327,29 126.598,28.789C127.496,28.089 127.863,26.845 128.761,26.145C129.429,26.773 133.142,30.129 133.524,30.474C133.957,30.985 135.541,32.075 139.34,37.622C141.431,40.268 140.839,41.572 140.933,42.319C141.876,43.878 141.837,43.895 141.952,44.002C144.816,46.672 144.92,46.478 147.124,49.694L147.431,50.541C149.318,53.673 150.712,56.734 150.965,57.289C153.982,63.909 148.698,61.58 141.55,62.706C136.155,64.414 136.207,64.418 131.286,67.212C129.574,68.925 128.81,69.061 128.548,69.108C127.732,69.254 127.719,68.99 121.304,61.698C120.291,60.898 112.84,55.014 105.245,60.148C102.952,62.09 103.015,62.02 101.417,64.461L100.448,67.484C99.605,69.4 99.661,69.421 99.537,69.553C98.345,70.833 98.18,69.812 96.674,69.023C94.504,67.887 93.239,69.254 91.312,70.104C90.397,70.332 89.481,70.56 88.565,70.789C85.977,71.38 86.088,71.539 83.517,71.322C77.567,69.833 77.666,69.72 71.547,69.032C66.959,68.786 67.018,68.844 62.473,69.119C60.838,69.335 59.203,69.551 57.568,69.767L53.419,71.146C47.253,72.945 44.814,76.141 34.379,82.186C31.879,83.275 31.955,83.246 29.465,84.357C22.125,85.684 22.206,85.804 18.515,86.163C10.109,84.777 9.905,84.906 3.227,79.566C2.904,78.943 2.58,78.32 2.257,77.697C4.315,77.902 4.318,77.842 4.479,77.919C5.051,78.189 9.857,80.461 11.435,81.677C12.695,82.003 17.697,83.961 25.544,81.606C27.471,80.34 34.817,77.273 35.639,76.93C38.605,76.076 38.324,75.661 40.668,73.689C44.08,71.43 43.997,71.444 47.402,69.308C50.556,67.98 52.152,66.537 56.751,65.852C62.072,64.943 61.944,64.875 67.32,64.262C68.638,64.651 70.305,65.293 70.561,65.392C73.123,66.379 73.055,63.473 71.515,63.344C71.161,63.315 68.637,64.225 68.391,64.313C65.411,60.428 61.765,62.321 55.498,63.529C52.743,64.09 51.215,63.687 46.413,66.179C45.64,66.483 41.084,68.276 37.22,71.001C36.703,71.318 32.244,74.058 30.505,74.512C24.04,76.199 24.055,76.544 17.558,75.336C4.904,70.306 7.367,60.008 11.691,53.684C22.417,44.8 36.603,56.101 25.34,66.043C17.848,67.112 24.411,62.969 24.758,61.58C26.398,55.008 16.167,51.684 13.131,60.38C12.406,62.902 12.563,62.869 12.853,65.416C17.07,76.111 30.582,70.057 32.432,69.307C32.84,69.141 33.135,68.757 33.543,68.591C35.828,67.36 37.339,65.937 37.631,65.661C39.047,65.238 42.831,64.108 49.425,51.452L49.83,50.709C55.864,43.712 55.446,42.62 64.49,40.468C66.808,39.917 66.925,37.373 72.73,33.929C76.472,31.709 76.93,31.723 77.423,27.462C83.146,23.474 81.927,21.109 85.651,19.695C86.283,19.455 90.348,16.257 90.746,15.944C95.122,14.652 95.162,14.116 99.537,15.354C99.919,15.462 99.782,14.4 104.452,14.732L87.152,34.779C84.307,34.844 85.325,36.857 82.57,37.604C81.947,37.773 82.08,38.365 78.426,38.253C75.749,39.591 75.963,39.768 73.71,41.747C73.071,42.308 72.999,41.975 72.183,42.236C72.175,43.943 72.12,43.833 71.492,45.496C69.909,49.691 64.335,44.239 60.4,49.417C59.049,51.195 56.846,51.455 56.494,51.497L56.126,52.348C56.709,53.582 56.874,53.371 57.456,54.558L58.562,54.641C64.591,48.699 65.806,52.184 67.534,53.359L68.513,53.385C69.009,53.336 68.96,53.361 71.392,53.427L71.625,52.552C71.432,51.821 70.374,47.813 76.437,44.416C78.111,43.477 80.434,43.951 80.661,44.083C81.586,44.621 81.573,45.109 82.483,44.48C83.946,39.892 85.074,40.86 86.326,40.198C87.273,39.698 86.963,39.519 86.818,38.456C86.619,37.005 86.87,37.076 87.225,35.488L87.152,34.779L104.452,14.732L101.831,23.83C100.452,25.056 99.652,24.597 98.753,28.528C98.336,30.352 98.32,30.879 96.498,30.509C91.065,29.405 91.343,33.264 85.972,32.178C86.019,32.489 84.976,32.676 86.196,33.666C86.799,34.155 86.537,34.28 87.152,34.779L87.225,35.488C87.823,36.171 88.584,35.579 88.97,37.482C89.09,38.074 89.278,37.935 89.397,38.52C89.802,37.745 92.904,31.818 98.494,32.459C103.467,33.03 105.435,35.464 106.573,30.541C107.351,27.177 110.679,32.592 112.116,34.108C114.294,32.489 114.522,33.39 115.501,33.251L116.493,32.692C115.819,32.614 115.131,32.766 114.457,32.687C113.322,32.556 112.616,27.482 111.122,25.804C110.936,25.596 110.842,25.719 108.492,23.51C108.503,26.261 108.737,26.422 108.505,26.47C108.155,26.544 108.382,26.064 104.501,24.499C103.611,24.276 102.721,24.053 101.831,23.83L104.452,14.732L89.841,39.391C89.17,40.58 88.873,40.335 88.611,41.57C88.355,42.777 84.982,42.881 84.423,43.442C83.605,44.26 83.689,44.333 82.483,44.48C81.573,45.109 81.586,44.621 80.661,44.083C80.434,43.951 78.111,43.477 76.437,44.416C70.374,47.813 71.432,51.821 71.625,52.552C71.935,52.219 72.245,51.886 72.555,51.553C73.058,50.575 72.772,47.549 77.509,47.511C82.895,45.284 81.67,49.628 84.739,51.086C88.947,53.086 87.525,49.22 91.004,46.082C92.992,44.289 90.135,39.848 89.841,39.391L104.452,14.732L103.578,22.3C100.458,21.709 93.982,23.273 91.299,23.275C88.79,28.978 88.221,28.766 85.406,29.459C85.227,29.859 85.047,30.259 84.868,30.659C85.938,31.675 85.938,31.662 86.023,31.756C86.118,31.861 85.877,32.073 85.972,32.178C91.343,33.264 91.065,29.405 96.498,30.509C98.32,30.879 98.336,30.352 98.753,28.528C99.652,24.597 100.452,25.056 101.831,23.83C102.413,23.32 102.995,22.81 103.578,22.3L104.452,14.732L116.493,32.692L115.501,33.251C116.633,36.26 115.138,36.025 113.625,38.814C118.525,38.245 119.265,36.894 122.336,40.713C123.63,41.227 125.044,41.662 125.283,41.735C124.646,39.9 124.685,39.932 123.544,38.378C121.755,35.941 123.592,35.881 123.604,35.24C120.854,32.383 120.394,33.32 116.493,32.692L104.452,14.732L56.126,52.348C53.298,58.623 57.707,59.821 60.456,57.445C62.4,55.765 62.87,56.521 64.63,54.663C65.654,53.582 65.788,53.898 67.534,53.359C65.806,52.184 64.591,48.699 58.562,54.641C58.193,54.614 57.825,54.586 57.456,54.558C56.874,53.371 56.709,53.582 56.126,52.348L104.452,14.732L103.578,22.3C103.885,23.033 104.193,23.766 104.501,24.499C108.382,26.064 108.155,26.544 108.505,26.47C108.737,26.422 108.503,26.261 108.492,23.51C100.777,17.557 91.59,22.569 90.313,23.266L91.299,23.275C93.982,23.273 100.458,21.709 103.578,22.3L104.452,14.732L123.604,35.24C123.592,35.881 121.755,35.941 123.544,38.378C124.685,39.932 124.646,39.9 125.283,41.735L125.653,42.391C127.323,44.359 127.229,44.409 129.474,45.551C130.679,43.948 130.668,43.955 130.776,43.82C131.949,42.349 131.1,42.229 129.481,41.133C125.905,38.844 126.956,37.777 123.604,35.24L104.452,14.732L71.368,42.412C68.362,46.657 67.52,45.466 62.457,46.366C60.267,46.756 56.886,51.004 56.494,51.497C56.846,51.455 59.049,51.195 60.4,49.417C64.335,44.239 69.909,49.691 71.492,45.496C72.12,43.833 72.175,43.943 72.183,42.236L71.368,42.412L104.452,14.732L135.465,40.542C132.347,40.126 132.466,40.502 129.481,41.133C131.1,42.229 131.949,42.349 130.776,43.82C130.668,43.955 130.679,43.948 129.474,45.551C133.632,50.501 132.553,44.24 133.463,43.47C133.637,43.323 133.666,43.442 136.068,42.325C135.867,41.731 135.666,41.137 135.465,40.542L104.452,14.732L87.225,35.488C86.87,37.076 86.619,37.005 86.818,38.456C86.963,39.519 87.273,39.698 86.326,40.198C85.074,40.86 83.946,39.892 82.483,44.48C83.689,44.333 83.605,44.26 84.423,43.442C84.982,42.881 88.355,42.777 88.611,41.57C88.873,40.335 89.17,40.58 89.841,39.391L89.397,38.52C89.278,37.935 89.09,38.074 88.97,37.482C88.584,35.579 87.823,36.171 87.225,35.488L104.452,14.732L84.868,30.659C83.411,36.191 82.093,35.317 78.577,36.658C78.373,36.735 78.404,36.761 76.246,38.055L78.426,38.253C82.08,38.365 81.947,37.773 82.57,37.604C85.325,36.857 84.307,34.844 87.152,34.779C86.537,34.28 86.799,34.155 86.196,33.666C84.976,32.676 86.019,32.489 85.972,32.178C85.877,32.073 86.118,31.861 86.023,31.756C85.938,31.662 85.938,31.675 84.868,30.659L104.452,14.732L115.501,33.251C114.522,33.39 114.294,32.489 112.116,34.108C110.203,35.867 110.002,35.503 108.174,37.333C108.306,37.843 109.001,38.08 109.133,38.591C109.317,39.303 108.695,39.79 109.381,39.593C109.666,39.512 110.276,39.336 111.697,36.703C113.675,35.049 113.571,35.051 115.501,33.251L104.452,14.732L115.501,33.251C113.571,35.051 113.675,35.049 111.697,36.703C111.581,38.279 111.616,38.169 111.799,39.785C112.407,39.462 113.016,39.138 113.625,38.814C115.138,36.025 116.633,36.26 115.501,33.251L104.452,14.732L111.697,36.703C110.276,39.336 109.666,39.512 109.381,39.593C108.695,39.79 109.317,39.303 109.133,38.591C109.001,38.08 108.306,37.843 108.174,37.333C107.134,38.335 107.171,38.271 106.379,39.484C107.585,41.113 107.511,41.041 107.628,41.127C111.613,41.652 111.531,40.065 111.799,39.785C111.616,38.169 111.581,38.279 111.697,36.703L104.452,14.732L90.313,23.266C86.07,27.262 86.531,27.87 85.406,29.459C88.221,28.766 88.79,28.978 91.299,23.275L90.313,23.266L104.452,14.732L77.509,47.511C72.772,47.549 73.058,50.575 72.555,51.553C77.73,51.835 77.139,48.452 77.509,47.511L104.452,14.732L99.521,57.358C92.705,58.98 98.059,61.289 98.438,61.173C101.175,60.335 101.71,59.281 99.521,57.358L104.452,14.732L102.504,25.793C99.955,26.953 99.139,27.693 101.176,29.673C108.598,36.885 102.662,26.081 102.504,25.793L104.452,14.732L121.993,58.211C123.603,58.449 123.537,58.672 125.147,58.279C125.429,56.547 126.143,56.026 124.491,55.518C121.904,54.721 121.344,55.643 121.993,58.211L104.452,14.732L110.614,21.433C115.259,23.57 114.582,20.794 114.42,20.527C112.753,17.793 110.773,21.163 110.614,21.433L104.452,14.732L80.914,27.304C79.459,29.4 79.369,29.349 79.342,29.568C79.182,30.89 82.861,30.762 80.914,27.304L104.452,14.732L103.578,22.3C102.995,22.81 102.413,23.32 101.831,23.83C102.721,24.053 103.611,24.276 104.501,24.499C104.193,23.766 103.885,23.033 103.578,22.3L104.452,14.732Z" style="fill:rgb(148,18,60);fill-opacity:0.95;"/>
            <path d="M60.528,72.68C62.852,72.605 65.176,72.53 67.499,72.454L70.501,72.434C76.994,72.647 76.973,72.503 83.056,74.514C77.401,80.115 75.913,74.605 64.504,76.521C64.412,76.536 59.818,77.04 59.411,77.084C58.57,77.327 51.577,79.342 49.286,81.228C47.261,83.287 47.312,83.209 45.412,85.463C42.623,87.243 43.005,87.533 41.393,90.499C41.793,90.865 41.237,91.741 41.637,92.106C41.65,92.118 41.645,92.114 43.586,90.743C45.15,89.3 45.106,89.36 46.657,87.879C50.441,84.03 57.493,81.908 58.521,81.599C63.823,80.29 64.028,80.556 64.313,80.925C64.471,81.129 64.003,81.142 64.883,84.103C66.81,84.619 66.997,83.971 66.94,81.916C66.936,81.802 66.94,81.916 67.59,80.636C68.563,80.475 69.536,80.314 70.509,80.153C75.19,80.616 75.122,80.526 79.569,82.089C81.928,82.458 81.903,82.39 89.518,83.069C92.487,83.58 94.076,83.667 94.476,83.689L97.47,83.778C102.882,85.324 102.897,85.104 108.469,84.405C115.009,82.271 114.791,81.815 115.803,80.922C121.47,76.79 121.711,74.488 122.223,69.395C123.072,60.928 132.927,82.337 111.442,90.122L110.44,90.239C109.122,90.552 107.803,90.864 106.484,91.177C96.43,90.873 96.502,90.862 95.477,90.863C90.901,90.33 90.931,90.326 90.535,90.287C89.515,90.188 89.601,90.323 88.523,90.219C86.609,89.966 86.622,89.959 86.456,89.946C85.962,89.907 86.053,90.066 85.542,90.026C71.565,87.545 71.477,87.494 57.466,90.086L56.45,90.15C50.546,90.893 48.615,91.857 40.406,97.38C39.249,98.214 39.336,98.225 38.179,99.064C36.498,100.197 36.19,100.943 34.799,99.392C34.833,96.839 34.753,96.919 35.303,94.441C36.297,90.468 39.836,85.016 41.918,81.945C44.462,79.364 44.551,79.633 47.436,77.373C49.497,75.76 49.798,76.392 51.941,74.985C56.423,74.522 56.22,74.063 60.528,72.68L60.483,85.482C60.315,85.19 61.177,81.845 57.56,84.574C55.698,85.979 57.791,87.303 60.483,85.482L60.528,72.68Z" style="fill:rgb(124,17,50);fill-opacity:0.94;"/>
            <path d="M83.605,13.715C83.48,10.888 83.175,9.622 80.647,10.929C76.161,13.25 80.313,15.28 80.39,15.354C74.248,20.564 75.106,21.243 73.21,24.337C70.544,28.686 70.829,28.862 67.498,31.498C62.835,34.911 53.806,33.037 49.483,32.803C36.018,30.527 58.826,16.192 59.288,15.378C69.03,-1.809 77.545,3.902 90.375,8.789C96.293,11.043 89.261,11.019 83.605,13.715L66.573,12.503L66.54,13.499C66.423,16.262 65.875,16.453 66.895,17.279C68.309,18.424 68.921,14.137 68.967,13.817C68.998,13.601 69.927,7.096 66.573,12.503L83.605,13.715L74.342,16.008C74.318,13.302 75.297,12.066 72.561,12.01C72.211,12.002 68.09,14.041 74.342,16.008L83.605,13.715L67.009,20.437C64.713,16.38 64.437,20.309 64.483,20.505C64.893,22.242 65.573,21.532 67.009,20.437L83.605,13.715Z" style="fill:rgb(143,13,57);fill-opacity:0.96;"/>
            <path d="M20.538,89.586C21.341,89.253 27.224,86.814 31.265,87.829C31.903,87.989 33.475,90.82 24.501,92.51C21.342,93.442 20.522,92.474 19.137,95.434C17.549,98.829 20.359,98.733 21.204,97.27C23.114,93.968 25.671,96.403 25.302,99.495C24.345,107.501 6.433,102.848 16.856,90.979C18.083,90.515 19.311,90.05 20.538,89.586Z" style="fill:rgb(115,16,47);fill-opacity:0.87;"/>
            <path d="M158.994,34.249C159.701,35.019 159.305,35.322 160.502,35.891C162.494,36.839 162.719,41.427 164.77,37.641C165.077,37.075 167.505,34.379 167.753,34.104C168.298,34.605 168.843,35.107 169.389,35.608C171.174,37.475 170.833,37.884 173.331,38.637C173.607,40.408 173.618,40.395 173.629,40.55C173.663,41.042 173.455,40.965 173.49,41.462L172.403,41.204C162.972,39.973 162.323,39.862 161.452,39.714C154.444,38.523 154.073,39.141 153.756,39.668C153.608,39.915 153.678,40.254 153.529,40.501C151.979,39.357 151.833,39.234 152.403,37.384C152.806,37.492 156.035,38.355 157.128,35.187C157.72,33.472 158.41,34.542 158.994,34.249Z" style="fill:rgb(148,27,62);fill-opacity:0.94;"/>
            <path d="M106.755,67.555C107.409,67.751 106.848,68.312 107.495,68.506C107.564,68.527 107.593,68.535 108.23,67.997C113.589,63.466 120.192,76.84 108.552,78.928C108.218,78.988 103.398,81.151 106.449,76.205C107.675,76.233 107.661,76.258 108.639,75.611C109.044,75.348 113.367,72.542 110.249,69.793C109.105,68.785 109.015,69.274 107.516,69.278C106.314,69.28 106.643,68.826 106.755,67.555Z" style="fill:rgb(106,19,47);fill-opacity:0.83;"/>
            <path d="M158.623,26.337C159.713,27.266 159.618,27.203 159.713,27.266C167.922,32.772 167.047,33.64 167.753,34.104C167.505,34.379 165.077,37.075 164.77,37.641C162.719,41.427 162.494,36.839 160.502,35.891C159.305,35.322 159.701,35.019 158.994,34.249L159.502,33.498C161.622,33.184 161.948,32.708 162.071,32.527C162.551,31.824 162.207,31.803 161.478,31.52C160.476,31.132 160.574,31.172 159.613,30.801C155.37,28.426 158.417,26.689 158.623,26.337Z" style="fill:rgb(155,41,72);fill-opacity:0.87;"/>
            <path d="M200.556,43.339C201.053,42.379 200.439,35.058 197.561,33.364C194.945,31.824 193.7,32 194.753,30.747C196.275,28.937 202.299,32.684 202.399,36.495C202.413,36.993 202.569,42.902 204.5,42.355C207.632,41.467 208.264,44.872 205.406,45.016C203.428,45.115 203.461,45.138 201.546,44.441L200.556,43.339Z" style="fill:rgb(155,36,70);fill-opacity:0.51;"/>
            <path d="M125.518,23.481C126.842,25.166 126.838,25.087 128.761,26.145C127.863,26.845 127.496,28.089 126.598,28.789C126.327,29 125.925,28.61 125.582,28.624C123.598,28.706 123.335,29.173 122.867,28.252C120.78,24.146 125.086,23.542 125.518,23.481Z" style="fill:rgb(167,51,88);fill-opacity:0.9;"/>
            <path d="M191.118,73.8C191.834,74.191 191.712,74.242 192.477,74.541C196.548,76.13 201.342,81.989 196.452,79.585C195.532,79.133 190.938,75.752 190.467,75.405C190.684,74.87 190.901,74.335 191.118,73.8Z" style="fill:rgb(171,48,84);fill-opacity:0.82;"/>
            <path d="M83.605,13.715C81.93,14.478 81.971,14.313 80.39,15.354C80.313,15.28 76.161,13.25 80.647,10.929C83.175,9.622 83.48,10.888 83.605,13.715Z" style="fill:rgb(159,43,80);fill-opacity:0.94;"/>
            <path d="M170.417,20.998L169.743,21.753C168.757,20.625 166.714,20.964 166.67,15.581C166.663,14.691 168.147,14.229 168.435,15.53C168.941,17.817 169.251,17.619 170.376,19.714C170.579,20.091 170.214,20.62 170.417,20.998Z" style="fill:rgb(179,59,92);fill-opacity:0.66;"/>
            <path d="M136.491,39.474C137.293,39.368 138.095,39.262 138.897,39.157C139.263,39.934 139.628,40.711 139.993,41.489C137.768,44.214 137.264,42.875 136.068,42.325C135.867,41.731 135.666,41.137 135.465,40.542L136.491,39.474Z" style="fill:rgb(192,86,116);fill-opacity:0.88;"/>
            <path d="M173.514,49.398C172.515,50.111 172.79,50.379 171.648,50.729C171.519,50.769 171.504,50.988 171.375,51.028C170.124,51.468 170.368,51.661 169.646,52.754L168.998,52.715C168.584,49.91 167.646,48.741 170.499,48.492C171.067,48.443 173.053,49.282 173.514,49.398Z" style="fill:rgb(171,44,81);fill-opacity:0.69;"/>
            <path d="M219.012,76.15L220.79,76.495C220.724,76.965 219.456,85.92 218.09,81.775C217.947,81.342 218.236,81.383 219.012,76.15Z" style="fill:rgb(198,73,111);fill-opacity:0.81;"/>
            <path d="M76.246,38.055L78.426,38.253C75.749,39.591 75.963,39.768 73.71,41.747C73.071,42.308 72.999,41.975 72.183,42.236L71.368,42.412C73.5,39.716 73.153,39.34 76.246,38.055Z" style="fill:rgb(139,80,95);fill-opacity:0.14;"/>
            <path d="M200.556,43.339L201.546,44.441C201.1,44.695 200.955,45.325 200.51,45.579C198.421,46.773 195.597,40.399 198.539,41.392C198.717,41.452 197.954,41.826 199.696,43.442C199.908,43.639 200.345,43.143 200.556,43.339Z" style="fill:rgb(174,57,92);fill-opacity:0.65;"/>
            <path d="M121.993,58.211C123.603,58.449 123.537,58.672 125.147,58.279C125.458,62.864 123.532,61.687 122.18,61.751C122.137,61.471 122.373,61.538 121.993,58.211Z" style="fill:rgb(175,71,105);fill-opacity:0.79;"/>
            <path d="M106.742,41.061C106.809,41.488 107.409,45.328 105.443,46.305C105.137,46.457 102.402,46.466 105.36,42.045L106.742,41.061Z" style="fill:rgb(220,76,120);fill-opacity:0.96;"/>
            <path d="M169.595,79.889C169.959,79.948 175.525,80.857 173.457,82.412C170.788,84.418 169.689,80.245 169.595,79.889Z" style="fill:rgb(195,64,103);fill-opacity:0.6;"/>
            <path d="M66.573,12.503L66.54,13.499C66.288,13.489 64.106,13.4 63.545,12.512C62.627,11.057 63.817,11.381 64.021,11.098C64.229,10.807 63.716,10.12 64.061,10.026C64.061,10.026 66.372,12.305 66.573,12.503Z" style="fill:rgb(186,73,111);fill-opacity:0.83;"/>
            <path d="M88.371,55.553C89.399,61.551 85.957,56.176 85.984,55.492C86.051,53.781 86.905,54.695 88.371,55.553Z" style="fill:rgb(225,70,122);"/>
            <path d="M67.32,64.262L68.391,64.313C68.637,64.225 71.161,63.315 71.515,63.344C73.055,63.473 73.123,66.379 70.561,65.392C70.305,65.293 68.638,64.651 67.32,64.262Z" style="fill:rgb(189,56,98);fill-opacity:0.8;"/>
            <path d="M122.336,40.713C123.63,41.227 125.044,41.662 125.283,41.735L125.653,42.391C125.536,42.56 124.238,44.425 123.739,44.107C123.671,44.064 123.199,44.127 122.336,40.713Z" style="fill:rgb(197,97,127);fill-opacity:0.81;"/>
            <path d="M159.613,30.801C160.574,31.172 160.476,31.132 161.478,31.52C162.207,31.803 162.551,31.824 162.071,32.527C161.948,32.708 161.622,33.184 159.502,33.498C158.975,32.153 158.25,31.933 159.613,30.801Z" style="fill:rgb(191,64,101);fill-opacity:0.56;"/>
            <path d="M116.478,43.591C117.695,41.288 118.256,41.295 118.5,41.299C121.357,41.339 117.668,44.306 117.46,44.473L116.478,43.591Z" style="fill:rgb(194,52,95);"/>
            <path d="M84.567,23.544C87.856,22.181 87.82,23.388 87.779,23.642C87.698,24.137 86.914,24.215 86.656,24.645C86.493,24.917 86.918,25.529 86.608,25.595C85.992,25.726 85.419,24.908 84.803,25.039C84.725,24.541 84.646,24.043 84.567,23.544Z" style="fill:rgb(216,102,141);fill-opacity:0.74;"/>
            <path d="M189.503,86.525C189.695,86.089 190.378,86.011 190.57,85.575C190.71,85.259 190.237,84.878 190.369,84.559C190.974,83.104 192.253,84.545 192.359,84.664C193.239,85.656 192.544,85.703 191.821,86.786C191.048,86.699 190.276,86.612 189.503,86.525Z" style="fill:rgb(156,32,69);fill-opacity:0.83;"/>
            <path d="M190.312,47.385C190.46,48.162 190.608,48.939 190.756,49.716L190.28,50.193C187.159,49.026 187.848,48.36 187.739,48.203C188.814,48.16 188.679,48.045 190.312,47.385Z" style="fill:rgb(146,90,105);fill-opacity:0.22;"/>
            <path d="M89.69,91.05C92.713,91.204 92.667,91.27 94.514,91.205L96.505,91.233C94.199,91.655 94.045,93.636 89.69,91.05Z" style="fill:rgb(88,45,56);fill-opacity:0.16;"/>
            <path d="M116.478,43.591L117.46,44.473C114.806,46.694 113.708,44.7 114.776,43.866C114.776,43.866 116.342,43.613 116.478,43.591Z" style="fill:rgb(222,78,122);"/>
            <path d="M189.503,86.525C190.276,86.612 191.048,86.699 191.821,86.786C191.558,86.99 189.719,89.506 188.661,88.326C187.808,87.376 188.56,87.359 189.503,86.525Z" style="fill:rgb(188,59,98);fill-opacity:0.84;"/>
            <path d="M146.508,27.264C145.083,27.074 144.635,27.09 144.998,25.686C145.399,24.136 148.87,25.198 146.508,27.264Z" style="fill:rgb(181,49,88);fill-opacity:0.61;"/>
            <path d="M51.481,27.441C51.64,27.54 59.158,34.148 51.391,29.79C50.028,29.026 50.565,28.636 51.481,27.441Z" style="fill:rgb(204,83,123);fill-opacity:0.87;"/>
            <path d="M88.565,70.789C89.481,70.56 90.397,70.332 91.312,70.104L92.379,70.325C91.404,72.09 91.461,72.03 91.361,72.104C89.614,71.362 89.624,71.371 89.475,71.302C89,71.084 89.129,71.048 88.565,70.789Z" style="fill:rgb(139,73,95);fill-opacity:0.23;"/>
            <path d="M88.523,90.219C89.601,90.323 89.515,90.188 90.535,90.287C90.931,90.326 90.901,90.33 95.477,90.863L94.514,91.205C92.667,91.27 92.713,91.204 89.69,91.05L88.523,90.219Z" style="fill:rgb(107,42,59);fill-opacity:0.35;"/>
            <path d="M61.807,26.527C63.424,25.485 63.407,25.318 63.548,25.405C64.431,25.953 63.578,30.242 61.807,26.527Z" style="fill:rgb(219,66,119);"/>
            <path d="M53.752,26.19C53.737,26.061 53.572,24.575 53.572,24.575C54.073,24.128 57.215,26.018 53.752,26.19Z" style="fill:rgb(209,82,127);fill-opacity:0.87;"/>
            <path d="M97.786,44.586C97.882,44.492 98.857,43.532 99.257,43.76C99.996,44.181 99.19,47.746 97.786,44.586Z" style="fill:rgb(202,62,109);"/>
            <path d="M13.131,60.38C13.501,62.958 13.362,62.867 12.853,65.416C12.563,62.869 12.406,62.902 13.131,60.38Z" style="fill:rgb(131,53,79);fill-opacity:0.29;"/>
            <path d="M194.861,46.379C194.885,46.437 194.859,46.382 196.011,48.695C195.731,49.306 195.451,49.916 195.171,50.527C195.004,49.474 194.838,48.421 194.671,47.369L194.861,46.379Z" style="fill:rgb(98,49,62);fill-opacity:0.2;"/>
            <path d="M150.701,44.422C151.407,46.338 151.61,46.201 151.917,48.263C151.442,47.677 150.967,47.09 150.493,46.504L150.701,44.422Z" style="fill:rgb(117,57,74);fill-opacity:0.25;"/>
            <path d="M147.385,47.558C148.056,49.043 148.121,48.921 148.303,50.649L147.431,50.541L147.124,49.694C147.211,48.982 147.298,48.27 147.385,47.558Z" style="fill:rgb(110,53,67);fill-opacity:0.15;"/>
            <path d="M151.917,48.263C152.257,48.599 152.597,48.935 152.937,49.271C152.819,50.003 152.701,50.736 152.584,51.468C152.361,50.4 152.139,49.331 151.917,48.263Z" style="fill:rgb(103,46,68);fill-opacity:0.2;"/>
            <path d="M13.468,86.994C15.15,86.717 16.833,86.44 18.515,86.163C16.682,86.667 16.868,87.281 14.492,87.269C13.93,87.266 14.05,86.997 13.468,86.994Z" style="fill:rgb(90,48,62);fill-opacity:0.11;"/>
            <path d="M41.393,90.499C42.124,90.581 42.855,90.662 43.586,90.743C41.645,92.114 41.65,92.118 41.637,92.106C41.237,91.741 41.793,90.865 41.393,90.499Z" style="fill:rgb(182,62,100);fill-opacity:0.62;"/>
            <path d="M106.379,39.484C107.585,41.113 107.511,41.041 107.628,41.127L106.742,41.061L105.36,42.045C106.139,39.98 106.083,40.028 106.379,39.484Z" style="fill:rgb(168,41,80);fill-opacity:0.62;"/>
            <path d="M7.065,60.477C7.073,62.156 7.08,63.836 7.088,65.515C6.88,62.987 6.879,63.054 7.065,60.477Z" style="fill:rgb(86,50,62);fill-opacity:0.09;"/>
            <path d="M17.556,57.592C18.621,57.163 18.405,56.811 19.499,56.809C20.589,56.807 20.371,57.165 21.432,57.597C19.463,57.287 19.512,57.291 17.556,57.592Z" style="fill:rgb(68,41,48);fill-opacity:0.04;"/>
            <path d="M110.44,90.239L109.355,91.119C108.398,91.138 107.441,91.158 106.484,91.177C107.803,90.864 109.122,90.552 110.44,90.239Z" style="fill:rgb(119,48,66);fill-opacity:0.36;"/>
            <path d="M49.515,48.505C49.62,49.239 49.725,49.974 49.83,50.709L49.425,51.452L48.835,51.789C48.893,50.993 48.927,51.069 49.515,48.505Z" style="fill:rgb(84,30,49);fill-opacity:0.22;"/>
            <path d="M106.698,71.777C106.768,71.685 107.571,70.628 107.571,70.628C108.099,70.649 108.467,71.303 108.995,71.324C108.119,71.581 107.243,71.838 106.367,72.095L106.698,71.777Z" style="fill:rgb(36,29,30);fill-opacity:0.01;"/>
            <path d="M31.292,57.514C31.249,58.807 31.205,60.099 31.162,61.391C30.664,59.409 30.715,59.43 31.292,57.514Z" style="fill:rgb(78,57,60);fill-opacity:0.07;"/>
            <path d="M68.513,53.385C69.009,53.336 68.96,53.361 71.392,53.427C69.958,53.904 69.966,53.944 68.513,53.385Z" style="fill:rgb(124,56,73);fill-opacity:0.17;"/>
            <path d="M202.853,67.254C203.78,68.385 203.722,68.303 204.5,69.5C203.313,68.612 203.501,68.531 202.853,67.254Z" style="fill:rgb(110,43,61);fill-opacity:0.28;"/>
            <path d="M17.497,48.732L21.512,48.734C19.44,49.214 19.505,49.199 17.497,48.732Z" style="fill:rgb(78,49,56);fill-opacity:0.07;"/>
            <path d="M219.012,76.15C219.912,74.245 220.119,76.144 220.79,76.495L219.012,76.15Z" style="fill:rgb(163,36,75);fill-opacity:0.91;"/>
            <path d="M67.499,72.454C68.988,72.106 68.957,72.08 70.501,72.434L67.499,72.454Z" style="fill:rgb(146,59,90);fill-opacity:0.49;"/>
            <path d="M60.494,35.268C62.065,34.922 61.977,34.936 63.483,35.252L60.494,35.268Z" style="fill:rgb(75,45,56);fill-opacity:0.07;"/>
        </g>
    </g>
</svg>
