<?xml version="1.0" encoding="UTF-8" standalone="no"?>
<!DOCTYPE svg PUBLIC "-//W3C//DTD SVG 1.1//EN" "http://www.w3.org/Graphics/SVG/1.1/DTD/svg11.dtd">
<svg width="100%" height="100%" viewBox="0 0 332 144" version="1.1" xmlns="http://www.w3.org/2000/svg" xmlns:xlink="http://www.w3.org/1999/xlink" xml:space="preserve" xmlns:serif="http://www.serif.com/" style="fill-rule:evenodd;clip-rule:evenodd;stroke-linejoin:round;stroke-miterlimit:2;">
    <g transform="matrix(1,0,0,1,0.002699,0.001861)">
        <g transform="matrix(1.373047,0,0,1.373047,-513.150181,-206.690625)">
            <path d="M614.236,190.437C608.933,222.074 604.486,254.358 601.521,254.268C599.502,254.206 600.104,252.322 577.538,246.369C565.327,243.148 565.465,242.819 540.485,234.546C540.082,234.413 535.546,232.911 535.953,231.801C536.97,229.028 553.074,228.233 547.252,218.662C529.24,189.058 523.389,169.954 504.095,157.866C503.926,157.76 500.731,155.758 504.473,155.406C572.911,148.975 595.557,194.022 598.478,194.59C602.194,195.314 614.986,183.165 614.774,187.443C614.723,188.456 614.287,189.425 614.236,190.437Z" style="fill:rgb(210,57,147);stroke:black;stroke-width:1.46px;"/>
        </g>
        <g transform="matrix(1.373047,0,0,1.373047,-513.150181,-206.690625)">
            <path d="M431.477,190.442C435.674,188.338 436.815,190.457 439.82,186.782C445.749,179.529 449.728,183.518 453.582,175.542C462.233,157.641 492.603,154.23 515.14,186.759C519.975,193.739 527.152,206.681 526.968,207.498C526.22,210.828 524.867,209.102 521.474,209.101C510.765,209.097 506.976,216.419 504.713,215.017C501.244,212.869 503.131,210.35 492.431,205.745C491.463,205.595 490.494,205.446 489.525,205.296C470.809,203.872 475.844,219.131 471.33,216.976C468.538,215.644 468.217,214.976 465.921,216.962C460.634,221.538 439.278,209.832 416.586,221.68C415.537,222.228 406.608,226.89 403.657,228.843C401.3,230.402 401.711,230.776 401.629,230.812C401.235,230.987 400.853,230.286 400.426,230.339C399.695,230.429 399.092,230.968 398.398,231.212C390.738,233.906 390.637,233.016 382.506,233.478L381.481,233.565C379.403,233.007 379.472,232.956 377.343,232.931C376.341,232.795 376.422,232.793 376.341,232.795C375.807,232.806 375.933,233.071 375.383,233.083C375.144,232.153 375.136,232.245 374.459,231.532C376.384,229.736 376.309,229.561 376.533,229.597C377.22,229.704 376.851,230.153 377.5,230.395C377.812,230.511 379.556,231.159 381.586,231.2C401.717,231.605 400.738,227.297 419.66,216.98C422.151,216.027 427.068,212.721 439.504,213.174C452.971,213.665 437.776,210.471 437.507,210.446C413.042,208.218 411.146,220.983 390.491,222.048C389.554,222.096 384.027,222.381 379.801,217.232C375.528,212.026 376.791,211.438 377.969,204.756C380.682,200.051 382.099,199.847 382.64,199.769C384.756,199.464 393.441,196.913 395.862,204.387C397.696,210.049 391.571,213.814 393.022,210.632C395.709,204.743 390.217,202.646 389.506,202.475C376.144,199.275 376.794,222.036 393.496,220.048C407.511,218.38 411.63,211.707 413.614,210.623C419.49,207.411 418.147,198.335 431.477,190.442Z" style="fill:rgb(208,58,147);stroke:black;stroke-width:1.46px;"/>
        </g>
        <g transform="matrix(1.373047,0,0,1.373047,-513.150181,-206.690625)">
            <path d="M521.701,165.307C521.685,164.994 521.238,164.812 521.222,164.5C521.107,162.261 538.812,167.422 551.355,177.681C565.708,189.422 570.635,196.169 570.388,192.478C569.272,175.783 567.878,175.987 567.915,174.538C568.046,169.358 572.786,181.817 575.549,186.482C577.058,189.03 581.039,203.251 588.806,221.355C599.82,247.029 599.708,249.155 597.435,248.795C596.909,248.711 585.369,225.255 570.27,217.892C552.065,209.015 551.029,211.374 549.855,210.078C546.431,206.302 572.768,214.218 572.724,211.542C572.704,210.272 565.202,201.653 564.244,200.791C562.601,199.312 562.398,199.677 560.652,198.269C557.986,196.119 545.921,191.899 540.484,190.534C519.529,185.274 551.281,189.681 551.877,188.665C552.1,188.286 550.07,186.322 549.885,186.143C547.87,184.193 531.223,168.087 521.701,165.307Z" style="fill:rgb(132,27,92);"/>
        </g>
        <g transform="matrix(1.373047,0,0,1.373047,-513.150181,-206.690625)">
            <path d="M427.368,207.369L426.5,208.112C426.336,207.881 425.899,208.71 425.735,208.48C425.692,208.419 424.001,197.226 430.435,194.412C434.386,192.684 434.32,192.793 438.58,191.799C441.601,191.095 439.781,185.373 452.501,181.839C458.445,180.187 456.064,177.623 459.876,172.759C469.346,160.677 484.695,164.664 489.28,172.626C491.337,176.198 490.994,176.951 495.468,177.727C504.284,179.256 505.489,188.156 507.547,188.331C510.767,188.605 511.706,187.897 511.482,189.494C511.426,189.89 511.209,189.683 507.257,192.164C504.457,193.922 500.622,179.411 485.484,184.904C475.106,188.669 486.09,182.372 486.285,182.27C497.261,176.55 471.791,167.071 464.808,178.676C462.409,182.663 462.534,182.903 463.783,187.387C464.534,190.084 466.295,191.911 463.519,191.309C462.421,191.071 451.888,188.789 449.483,191.47C446.299,195.02 445.097,194.796 445.752,199.487C446.607,205.614 432.631,192.99 427.368,207.369Z" style="fill:rgb(127,26,88);"/>
        </g>
        <g transform="matrix(1.373047,0,0,1.373047,-513.150181,-206.690625)">
            <path d="M450.614,223.405L450.404,224.356C442.379,223.959 442.472,223.689 434.49,224.102C428.504,224.412 425.997,226.2 424.362,226.105C420.035,225.855 407.603,236.881 409.211,239.937C409.419,240.332 430.772,227.428 452.517,232.419C463.477,234.935 463.491,234.284 474.501,236.494C482.576,238.114 495.41,233.866 497.566,226.523C500.685,215.904 482.832,212.665 487.252,216.63C489.938,219.039 491.494,229.747 478.478,228.545C472.449,227.988 480.218,227.192 480.407,227.173C485.809,226.62 487.806,222.789 486.867,220.294C485.175,215.8 481.469,218.798 480.586,218.269C476.543,215.845 489.182,204.384 499.275,220.544C500,221.704 503.864,227.89 492.2,236.106C472.559,249.94 454.316,225.815 411.61,242.706C409.207,243.657 408.423,245.333 406.489,245.553C404.998,245.723 405.748,244.909 406.005,243.491C406.814,239.03 406.685,239.039 406.836,238.679C410.802,229.225 419.248,225.515 420.68,224.886C426.871,222.98 437.51,219.536 450.614,223.405Z" style="fill:rgb(202,63,146);stroke:black;stroke-width:1.46px;"/>
        </g>
        <g transform="matrix(1.373047,0,0,1.373047,-513.150181,-206.690625)">
            <path d="M459.262,153.799C459.715,154.004 460.168,154.208 460.62,154.413C460.673,154.622 461.168,154.443 461.221,154.652C462.265,158.771 455.806,153.671 446.166,166.243C444.429,168.694 444.786,168.852 443.081,171.276C437.122,179.749 435.398,178.06 422.509,177.181C420.555,176.786 419.94,177.54 419.34,175.558C416.933,167.61 431.025,167.401 432.766,161.67C433.119,161.038 435.016,157.633 438.834,154.96C448.894,147.916 457.17,152.947 459.262,153.799Z" style="fill:rgb(208,59,148);stroke:black;stroke-width:1.46px;"/>
        </g>
        <g transform="matrix(1.373047,0,0,1.373047,-513.150181,-206.690625)">
            <path d="M558.102,191.439C556.093,187.867 539.1,174.074 537.362,172.663C529.977,166.668 539.471,171.991 539.63,172.09C554.483,181.317 570.726,199.881 572.399,199.248C574.141,198.589 570.695,181.438 573.813,188.029C575.56,191.721 573.96,192.353 592.638,235.49C597.033,245.641 587.934,229.048 583.413,224.588C572.486,213.81 560.893,214.153 568.549,213.726C571.119,213.583 580.924,218.777 575.713,211.342C574.868,210.136 566.738,196.701 557.271,193.885C557.548,193.07 557.825,192.254 558.102,191.439Z" style="fill:rgb(253,243,251);"/>
        </g>
        <g transform="matrix(1.373047,0,0,1.373047,-513.150181,-206.690625)">
            <path d="M428.288,200.808C428.516,199.945 429.701,195.465 437.502,194.519C444.99,193.612 441.412,186.645 452.478,184.392C461.191,182.618 457.429,177.991 464.013,172.004C476.335,160.802 492.166,175.379 482.508,171.471C476.337,168.975 468.996,171.492 465.842,173.964C460.128,178.442 460.787,179.244 460.85,186.535C460.867,188.528 457.058,187.331 456.509,187.328C442.625,187.264 444.296,197.931 441.506,197.929C437.039,197.925 436.798,196.793 428.288,200.808Z" style="fill:rgb(253,237,252);"/>
        </g>
        <g transform="matrix(1.373047,0,0,1.373047,-513.150181,-206.690625)">
            <path d="M388.458,240.426C387.914,240.781 382.321,244.431 385.862,248.111C386.295,248.56 386.961,250.109 391.511,247.288C392.067,247.393 392.623,247.498 393.179,247.603C393.21,248.222 393.241,248.841 393.272,249.46C392.645,249.962 387.328,254.219 383.259,248.652C380.754,245.226 386.285,238.743 387.389,239.263C387.865,239.487 387.981,240.202 388.458,240.426Z" style="fill:rgb(192,68,143);"/>
        </g>
        <g transform="matrix(1.373047,0,0,1.373047,-513.150181,-206.690625)">
            <path d="M502.208,185.072C497.583,182.545 497.598,182.539 492.404,181.711C484.94,180.521 501.59,177.496 502.208,185.072Z" style="fill:rgb(215,153,197);"/>
        </g>
        <g transform="matrix(1.373047,0,0,1.373047,-513.150181,-206.690625)">
            <path d="M558.102,191.439C557.825,192.254 557.548,193.07 557.271,193.885C550.105,191.606 547.39,191.485 549.61,190.729C551.591,190.055 554.882,191.987 558.102,191.439Z" style="fill:rgb(207,146,189);"/>
        </g>
        <g transform="matrix(1.373047,0,0,1.373047,-513.150181,-206.690625)">
            <path d="M377.343,232.931C379.472,232.956 379.403,233.007 381.481,233.565C380.434,233.657 380.49,233.697 378.693,234.059C377.875,233.602 378.084,233.409 377.343,232.931Z" style="fill:rgb(96,48,120);"/>
        </g>
        <g transform="matrix(1.373047,0,0,1.373047,-513.150181,-206.690625)">
            <path d="M381.481,233.565L382.506,233.478C381.235,233.672 379.964,233.865 378.693,234.059C380.49,233.697 380.434,233.657 381.481,233.565Z" style="fill:rgb(88,51,122);"/>
        </g>
        <g transform="matrix(1.373047,0,0,1.373047,-513.150181,-206.690625)">
            <path d="M489.525,205.296C490.494,205.446 491.463,205.595 492.431,205.745C490.909,206.11 490.982,205.809 489.525,205.296Z" style="fill:rgb(158,38,112);"/>
        </g>
    </g>
</svg>
