<?xml version="1.0" encoding="UTF-8" standalone="no"?>
<!DOCTYPE svg PUBLIC "-//W3C//DTD SVG 1.1//EN" "http://www.w3.org/Graphics/SVG/1.1/DTD/svg11.dtd">
<svg width="100%" height="100%" viewBox="0 0 279 144" version="1.1" xmlns="http://www.w3.org/2000/svg" xmlns:xlink="http://www.w3.org/1999/xlink" xml:space="preserve" xmlns:serif="http://www.serif.com/" style="fill-rule:evenodd;clip-rule:evenodd;stroke-linejoin:round;stroke-miterlimit:2;">
    <g transform="matrix(1,0,0,1,-568.06983,-228.902099)">
        <g transform="matrix(-0.479485,-0.87755,0.87755,-0.479485,640.258262,1688.219594)">
            <g transform="matrix(1.373047,0,0,1.373047,355.140758,250.012226)">
                <path d="M661.472,346.501C659.187,351.364 659.087,351.249 658.906,351.674C627.073,426.46 580.294,422.479 571.551,423.804C566.539,424.563 571.109,439.212 568.506,440.203C567.113,440.732 527.678,407.681 519.607,397.426C516.637,393.652 520.014,393.613 536.336,376.326C549.539,362.343 561.117,351.535 564.805,347.827C572.503,340.087 564.382,362.055 572.511,361.828C605.5,360.905 627.232,369.283 652.411,352.353C659.598,347.521 659.3,344.261 661.472,346.501Z" style="fill:rgb(237,132,33);stroke:rgb(14,14,14);stroke-width:1.46px;"/>
            </g>
            <g transform="matrix(1.373047,0,0,1.373047,355.140758,250.012226)">
                <path d="M648.642,338.689C645.279,341.237 635.431,351.078 607.526,350.007C601.541,349.777 608.419,345.721 605.773,338.384C598.587,318.452 583.219,315.104 601.062,286.193C616.678,260.889 618.49,261.39 621.548,241.514C622.177,237.425 635.81,249.138 644.249,263.646C659.143,289.253 667.267,303.824 658.022,326.285C655.221,333.092 649.589,337.883 648.642,338.689Z" style="fill:rgb(239,143,31);stroke:rgb(14,14,14);stroke-width:1.46px;"/>
            </g>
            <g transform="matrix(1.373047,0,0,1.373047,355.140758,250.012226)">
                <path d="M573.272,374.262C585.522,363.632 588.734,365.843 588.078,367.193C587.351,368.692 582.892,367.348 574.95,378.78C574.416,379.548 568.429,388.166 568.208,388.333C566.947,389.286 565.971,389.18 566.887,390.265C569.609,393.49 570.274,391.479 574.506,390.948C575.515,390.867 576.523,390.787 577.532,390.706C598.769,386.145 593.331,376.69 612.485,366.444C619.646,362.614 612.983,368.628 612.839,368.746C609.904,371.149 599.476,384.943 603.513,384.223C624.514,380.478 642.699,363.148 645.492,360.487C659.361,347.271 636.951,378.557 615.475,388.446C614.536,388.879 605.825,392.89 603.636,393.623C601.241,394.425 605.558,395.464 609.453,396.734C617.713,399.427 627.512,391.223 627.004,394.317C626.787,395.634 619.13,399.86 612.489,400.258C596.793,401.199 596.954,395.96 584.482,398.284C582.141,398.72 572.285,399.075 572.368,399.471C572.396,399.605 581.064,407.032 588.499,409.504C594.9,411.632 603.189,410.698 596.698,412.758C592.915,413.959 578.021,411.111 575.563,409.325C575.189,409.053 572.47,407.077 570.391,406.739C570.093,406.69 569.77,406.59 569.564,406.37C568.271,404.991 567.741,405.932 566.394,404.684C564.598,403.02 564.324,403.652 558.534,401.375C554.572,399.816 548.907,400.198 546.503,400.175C544.498,400.034 542.492,399.894 540.487,399.753C524.567,399.432 521.065,393.483 525.482,393.96C528.511,394.286 547.894,396.378 562.308,384.272C567.996,379.494 567.485,379.011 573.272,374.262Z" style="fill:rgb(154,79,23);"/>
            </g>
            <g transform="matrix(1.373047,0,0,1.373047,355.140758,250.012226)">
                <path d="M630.17,265.338C630.423,264.844 636.577,252.857 635.112,260.468C632.997,271.457 633.585,271.535 633.368,272.481C632.988,274.136 630.786,283.735 630.481,293.506C630.416,295.594 644.551,291.586 648.487,291.91C649.088,291.959 652.118,292.55 647.224,299.332C644.136,303.612 643.63,303.046 643.392,303.426C642.842,304.301 643.846,304.508 643.207,305.316C643.094,305.46 642.888,305.516 642.787,305.669C629.072,326.355 629.356,326.485 628.114,328.245C618.173,342.336 616.64,345.947 616.314,342.542C616.293,342.327 619.591,324.419 621.102,318.403C621.847,315.439 622.021,315.568 622.44,312.501C622.848,309.52 615.832,312.108 609.544,312.804C602.701,313.561 606.118,309.651 607.499,306.5C608.181,304.945 609.613,304.567 609.618,304.558C610.14,303.568 608.914,303.432 609.616,302.558C611.055,300.765 610.454,300.507 611.748,298.645C614.213,295.1 624.289,274.878 630.17,265.338Z" style="fill:rgb(145,77,22);"/>
            </g>
            <g transform="matrix(1.373047,0,0,1.373047,355.140758,250.012226)">
                <path d="M630.358,269.163C630.854,269.272 631.147,268.236 631.643,268.346C632.61,268.559 625.263,295.961 629.377,296.995C632.415,297.758 646.945,293.08 646.711,295.508C646.68,295.823 624.115,329.408 621.704,333.805C615.088,345.869 627.562,311.113 624.216,308.919C621.152,306.911 607.017,312.521 608.93,308.677C610.285,305.953 610.72,306.202 627.257,275.35C628.91,272.265 628.655,272.199 630.358,269.163Z" style="fill:rgb(254,252,246);"/>
            </g>
            <g transform="matrix(1.373047,0,0,1.373047,355.140758,250.012226)">
                <path d="M573.561,377.503C568.282,385.775 562.107,390.849 562.541,392.487C562.799,393.457 569.858,393.438 570.499,393.437C597.663,393.367 596.124,378.85 604.45,374.754C607.201,373.401 600.258,382.122 599.898,382.658C593.473,392.209 616.051,382.585 617.335,382.038C622.407,379.876 645.115,365.328 628.769,377.72C610.222,391.781 592.49,391.994 599.649,395.314C605.543,398.047 605.952,397.19 606.268,397.654C606.615,398.166 606.142,399.941 598.551,397.25C587.514,393.336 587.306,396.27 575.524,396.879C573.489,396.984 571.45,397.033 569.417,397.179C562.567,397.672 581.491,407.975 581.55,408.485C581.914,411.641 570.964,404.291 566.296,401.925C549.425,393.375 533.462,400.64 532.888,396.448C532.294,392.111 535.21,395.926 539.525,395.65C562.597,394.17 568.57,378.507 572.552,377.202C572.886,377.093 573.228,377.612 573.561,377.503Z" style="fill:rgb(252,245,233);"/>
            </g>
        </g>
    </g>
</svg>
