<?xml version="1.0" encoding="UTF-8" standalone="no"?>
<!DOCTYPE svg PUBLIC "-//W3C//DTD SVG 1.1//EN" "http://www.w3.org/Graphics/SVG/1.1/DTD/svg11.dtd">
<svg width="100%" height="100%" viewBox="0 0 26 37" version="1.1" xmlns="http://www.w3.org/2000/svg" xmlns:xlink="http://www.w3.org/1999/xlink" xml:space="preserve" xmlns:serif="http://www.serif.com/" style="fill-rule:evenodd;clip-rule:evenodd;stroke-linejoin:round;stroke-miterlimit:2;">
    <g transform="matrix(1,0,0,1,-25.483532,-14.604412)">
        <g transform="matrix(0.182715,0,0,0.185935,-0.412353,-0.707027)">
            <path d="M280.832,176.519C280.467,177.197 280.101,177.876 279.735,178.554L279.675,179.515C277.009,184.792 277.01,184.696 275.274,190.423C274.945,191.508 274.96,191.425 274.472,192.487C265.868,211.21 265.123,210.814 264.456,212.474C263.188,215.629 262.868,215.406 249.501,233.5C245.838,236.957 245.646,236.669 242.58,240.591C226.169,253.47 219.639,254.19 219.42,254.272C218.729,254.568 218.038,254.864 217.347,255.159C207.353,258.904 207.214,258.233 198.597,259.949C191.245,261.414 194.643,264.584 193.719,275.555C193.345,280.005 190.092,276.304 181.498,271.502C181.147,271.198 180.796,270.894 180.445,270.59C177.798,265.727 157.186,252.065 153.156,246.85C148.416,240.715 135.287,238.132 145.553,226.554C148.604,223.112 149.174,223.798 152.147,220.19C154.156,217.75 154.115,217.736 154.461,217.468C158.409,212.155 165.161,206.98 172.491,198.492C172.761,197.806 173.022,197.142 178.528,191.527C187.71,182.165 190.276,181.012 191.522,180.453C192.474,192.765 187.254,199.645 199.503,198.537C225.969,196.144 229.361,202.714 243.415,196.208C244.551,196.231 251.162,196.367 257.261,193.041C261.23,190.877 269.292,184.973 269.42,184.415C269.576,183.733 269.164,183 269.321,182.317C270,182 270.679,181.682 271.358,181.365C271.609,181.127 272.144,181.636 272.396,181.398C272.64,181.168 272.152,180.63 272.388,180.392C272.943,179.831 273.133,180.301 273.709,179.676C275.159,178.1 275.209,178.228 276.557,176.557C279.033,173.486 280.577,176.368 280.832,176.519L229.636,219.982C218.4,224.148 217.464,223.397 217.745,222.467C218.943,218.517 233.333,204.337 228.497,205.552C223.486,206.811 214.145,222.232 211.62,223.64C205.738,226.918 205.979,227.189 205.42,227.335C200.226,228.691 199.822,230.847 187.452,230.798C181.746,230.776 188.895,225.649 190.01,224.124C195.545,216.549 195.289,216.463 201.581,209.541C203.673,207.24 198.506,205.624 198.278,208.318C198.001,211.591 189.816,216.614 183.332,224.35C184.029,224.517 184.725,224.685 185.421,224.852C184.356,228.881 179.742,232.963 186.496,232.025C191.717,231.299 199.05,232.338 203.354,229.264C204.371,228.71 205.369,228.718 205.55,228.72C210.501,228.759 213.644,222.068 214.735,224.305C214.953,224.751 214.546,227.076 220.455,225.061C225.827,223.229 225.971,223.626 226.269,223.24C227.727,221.35 228.738,223.872 228.805,223.91C229.511,221.918 229.667,222.03 229.636,219.982L280.832,176.519L183.332,224.35C182.51,225.511 181.6,226.269 181.427,226.413C180.97,231.126 177.156,231.144 172.494,233.081C171.493,232.844 170.492,232.606 169.491,232.369L168.48,231.372C153.088,233.38 147.169,231.291 149.741,234.249C150.598,235.234 163.847,236.264 173.489,234.853C181.148,233.76 181.23,233.796 188.484,236.552C190.613,234.609 190.544,234.247 193.466,234.326C198.12,234.952 198.017,234.141 202.566,232.818C203.208,232.321 203.849,231.823 204.49,231.326C204.382,231.247 204.417,231.045 204.308,230.966C203.454,230.341 203.849,230.147 203.354,229.264C199.05,232.338 191.717,231.299 186.496,232.025C179.742,232.963 184.356,228.881 185.421,224.852C184.725,224.685 184.029,224.517 183.332,224.35L280.832,176.519L229.636,219.982C229.667,222.03 229.511,221.918 228.805,223.91C227.632,224.748 226.837,225.691 226.689,225.868C235.356,225.007 255.314,206.676 255.391,205.493C255.782,199.493 245.278,214.651 229.636,219.982L280.832,176.519L173.489,234.853C190.971,237.061 201.327,247.246 211.475,247.396C220.307,247.527 209.935,245.298 201.72,242.127C195.906,239.882 192.91,237.095 192.266,236.495C190.41,239.84 188.695,236.707 188.484,236.552C181.23,233.796 181.148,233.76 173.489,234.853L280.832,176.519L228.805,223.91C228.738,223.872 227.727,221.35 226.269,223.24C225.971,223.626 225.827,223.229 220.455,225.061C214.546,227.076 214.953,224.751 214.735,224.305C213.644,222.068 210.501,228.759 205.55,228.72C205.369,228.718 204.371,228.71 203.354,229.264C203.849,230.147 203.454,230.341 204.308,230.966C204.417,231.045 204.382,231.247 204.49,231.326C208.9,230.828 213.701,230.897 214.503,230.909C217.753,230.955 217.361,226.014 226.689,225.868C226.837,225.691 227.632,224.748 228.805,223.91L280.832,176.519L226.689,225.868C217.361,226.014 217.753,230.955 214.503,230.909C213.701,230.897 208.9,230.828 204.49,231.326C203.849,231.823 203.208,232.321 202.566,232.818C206.781,232.95 210.729,231.464 216.547,233.316C220.257,234.497 220.089,234.751 223.442,235.182C223.576,234.577 223.71,233.972 223.844,233.367C219.082,230.167 220.43,229.129 220.82,228.952C223.932,227.532 224.136,228.07 226.689,225.868L280.832,176.519L181.427,226.413C175.608,230.472 175.405,229.995 168.48,231.372L169.491,232.369C170.517,232.514 170.463,232.552 172.494,233.081C177.156,231.144 180.97,231.126 181.427,226.413L280.832,176.519L193.466,234.326C190.544,234.247 190.613,234.609 188.484,236.552C188.695,236.707 190.41,239.84 192.266,236.495C192.666,235.772 193.066,235.049 193.466,234.326L280.832,176.519Z" style="fill:rgb(218,120,17);fill-opacity:0.95;"/>
            <path d="M273.449,128.52C273.766,130.248 273.71,130.258 273.792,130.386C274.059,130.803 292.478,173.993 247.448,189.35C241.932,190.747 239.251,192.211 228.496,192.229C221.514,192.241 218.16,194.441 218.335,187.427C219.269,186.062 219.291,186.174 219.777,184.592C220.13,181.402 220.533,181.443 219.536,178.485C218.43,174.515 213.463,166.821 213.324,166.598C212.478,165.229 212.899,165.156 212.132,163.68C205.704,151.296 207.764,146.317 210.549,137.526C213.374,130.782 225.383,111.836 226.764,109.657C237.903,92.083 230.486,81.539 236.515,82.397C238.875,82.733 238.563,83.489 239.41,83.643C240.201,83.788 240.045,83.892 240.535,84.448C243.483,87.796 251.177,86.537 273.449,128.52L243.667,119.285C241.221,122.384 240.905,122.189 240.787,123.593C240.596,125.841 240.523,125.738 239.167,128.354C235.931,134.6 235.126,134.075 234.932,134.65C234.492,135.954 236.523,137.053 229.806,143.622C230.367,147.2 229.11,146.932 227.905,150.417C228.101,150.812 228.297,151.207 228.493,151.602L229.498,151.479C232.284,149.996 232.233,149.85 232.504,149.879C239.787,150.663 239.864,150.254 240.337,150.67C243.709,153.632 241.334,155.43 241.261,156.467C240.522,167.033 238.438,166.64 238.769,167.481C240.033,170.696 241.465,166.31 242.237,165.257C242.786,164.51 241.976,164.094 248.201,155.32C251.45,150.741 251.223,150.719 253.86,145.663C255.307,142.888 257.43,143.861 257.034,140.785L256.447,139.923C250.402,140.588 250.538,141.517 244.525,141.178C240.512,140.951 241.533,130.739 242.579,129.556C243.467,128.552 242.959,126.307 242.908,125.44C242.774,123.142 245.252,122.689 243.667,119.285L273.449,128.52L242.119,118.292L243.667,119.285C245.252,122.689 242.774,123.142 242.908,125.44C242.959,126.307 243.467,128.552 242.579,129.556C241.533,130.739 240.512,140.951 244.525,141.178C250.538,141.517 250.402,140.588 256.447,139.923C256.643,140.21 256.839,140.498 257.034,140.785C257.43,143.861 255.307,142.888 253.86,145.663C251.223,150.719 251.45,150.741 248.201,155.32C241.976,164.094 242.786,164.51 242.237,165.257C241.465,166.31 240.033,170.696 238.769,167.481C238.438,166.64 240.522,167.033 241.261,156.467C241.334,155.43 243.709,153.632 240.337,150.67C239.864,150.254 239.787,150.663 232.504,149.879C232.233,149.85 232.284,149.996 229.498,151.479C233.885,152.024 240.085,149.684 239.603,154.504C238.556,164.987 232.424,183.771 237.657,175.723C242.917,167.635 255.95,146.101 257.517,143.511C257.687,143.23 258.013,143.632 260.089,140.303C264.212,133.691 243.252,143.797 243.582,136.5C244.041,126.37 244.601,126.543 246.773,116.53C250.09,101.238 242.491,117.9 242.119,118.292L273.449,128.52L242.119,118.292C241.165,120.257 232.55,137.997 229.495,142.497L229.806,143.622C236.523,137.053 234.492,135.954 234.932,134.65C235.126,134.075 235.931,134.6 239.167,128.354C240.523,125.738 240.596,125.841 240.787,123.593C240.905,122.189 241.221,122.384 243.667,119.285L242.119,118.292L273.449,128.52L229.495,142.497C227.738,145.632 227.72,145.545 225.972,148.726C221.148,157.506 229.332,151.57 229.498,151.479L228.493,151.602C228.297,151.207 228.101,150.812 227.905,150.417C229.11,146.932 230.367,147.2 229.806,143.622L229.495,142.497L273.449,128.52Z" style="fill:rgb(220,119,16);fill-opacity:0.98;"/>
            <path d="M223.844,233.367C230.573,234.912 230.628,234.434 231.485,234.549C235.24,235.048 230.299,238.046 223.442,235.182C223.576,234.577 223.71,233.972 223.844,233.367Z" style="fill:rgb(238,156,57);fill-opacity:0.91;"/>
            <path d="M243.5,220.095C243.778,219.938 243.612,219.843 246.842,217.912C250.739,215.584 249.161,218.989 249.004,219.11C247.712,220.099 240.159,224.852 243.5,220.095Z" style="fill:rgb(242,154,54);fill-opacity:0.99;"/>
            <path d="M182.217,185.224C182.055,185.573 182.52,186.02 182.358,186.369C182.358,186.369 180.397,187.151 180.226,187.219C180.386,187.06 181.229,186.22 182.217,185.224Z" style="fill:rgb(149,89,69);fill-opacity:0.04;"/>
            <path d="M180.226,187.219C180.188,187.292 180.71,188.542 179.195,189.206C178.714,189.416 178.735,189.04 178.25,189.253C179.228,188.249 180.068,187.382 180.226,187.219Z" style="fill:rgb(131,112,76);fill-opacity:0.06;"/>
            <path d="M270.341,181.344L271.358,181.365C270.679,181.682 270,182 269.321,182.317C269.661,181.993 270.001,181.669 270.341,181.344Z" style="fill:rgb(164,121,76);fill-opacity:0.1;"/>
            <path d="M187.592,223.568C187.855,223 187.253,223.034 187.501,222.501C187.548,222.398 187.821,221.812 188.533,221.54C190.732,220.702 187.724,223.447 187.592,223.568Z" style="fill:rgb(157,142,127);fill-opacity:0.01;"/>
            <path d="M219.42,254.272C218.729,254.568 218.038,254.864 217.347,255.159C218.038,254.864 218.729,254.568 219.42,254.272Z" style="fill:rgb(163,92,34);fill-opacity:0.38;"/>
            <path d="M280.832,176.519C280.438,177.676 280.498,177.628 279.735,178.554C280.101,177.876 280.467,177.197 280.832,176.519Z" style="fill:rgb(107,80,42);fill-opacity:0.15;"/>
        </g>
    </g>
</svg>
