<?xml version="1.0" encoding="UTF-8" standalone="no"?>
<!DOCTYPE svg PUBLIC "-//W3C//DTD SVG 1.1//EN" "http://www.w3.org/Graphics/SVG/1.1/DTD/svg11.dtd">
<svg width="100%" height="100%" viewBox="0 0 262 150" version="1.1" xmlns="http://www.w3.org/2000/svg" xmlns:xlink="http://www.w3.org/1999/xlink" xml:space="preserve" xmlns:serif="http://www.serif.com/" style="fill-rule:evenodd;clip-rule:evenodd;stroke-linejoin:round;stroke-miterlimit:2;">
    <g transform="matrix(1,0,0,1,-152.309449,-376.132612)">
        <g transform="matrix(-0.526297,0.850301,-0.850301,-0.526297,816.077922,437.877045)">
            <g transform="matrix(1.373047,0,0,1.373047,-307.789132,-28.897753)">
                <path d="M415.594,351.561C403.649,372.618 406.108,377.073 407.14,396.436C407.467,402.573 392.769,378.182 387.72,367.396C359.212,306.495 397.737,285.185 388.416,280.665C375.318,274.314 375.315,273.118 376.081,272.199C376.441,271.767 434.858,248.66 439.496,248.856C441.682,248.948 448.368,281.008 455.775,309.411C455.936,310.028 458.313,319.143 455.545,317.384C450.431,314.133 444.541,307.634 441.663,311.625C437.377,317.57 437.601,317.603 432.155,326.26C424.077,339.099 423.329,338.495 415.594,351.561Z" style="fill:rgb(26,171,208);stroke:rgb(16,15,15);stroke-width:1.46px;"/>
            </g>
            <g transform="matrix(1.373047,0,0,1.373047,-307.789132,-28.897753)">
                <path d="M420.238,402.568C411.648,375.294 433.613,345.182 441.304,335.748C442.866,333.832 443.84,332.769 443.849,332.756C445.245,330.712 445.93,332.061 446.709,334.422C452.973,353.384 459.028,349.032 486.445,368.596C487.017,369.004 487.599,369.422 488.19,369.852C521.559,394.105 500.93,432.867 463.498,430.589C429.831,428.54 422.759,408.375 420.238,402.568Z" style="fill:rgb(24,171,208);stroke:rgb(16,15,15);stroke-width:1.46px;"/>
            </g>
            <g transform="matrix(1.373047,0,0,1.373047,-307.789132,-28.897753)">
                <path d="M459.299,366.373C459.49,366.229 460.919,363.607 463.447,368.525C471.133,383.475 473.346,387.292 473.276,395.493C473.262,397.118 472.097,397.335 472.07,397.432C471.958,397.832 472.557,398.127 472.658,398.53C473.838,403.212 461.979,411.145 456.516,407.463C452.018,404.432 451.641,404.817 450.339,402.596C445.346,394.08 450.302,382.853 459.299,366.373Z" style="fill:rgb(24,118,147);"/>
            </g>
            <g transform="matrix(1.373047,0,0,1.373047,-307.789132,-28.897753)">
                <path d="M463.443,373.534C464.747,376.157 476.574,395.184 467.394,403.38C462.466,407.78 442.004,408.072 454.748,380.622C459.464,370.464 460.556,367.805 462.082,370.751C462.516,371.589 462.392,371.547 462.784,372.343C462.832,372.441 462.784,372.343 463.443,373.534Z" style="fill:rgb(250,254,254);"/>
            </g>
            <g transform="matrix(1.373047,0,0,1.373047,-307.789132,-28.897753)">
                <path d="M430.264,304.48C430.011,305.031 429.758,305.582 429.504,306.133C426.023,301.128 425.936,296.195 422.817,285.378C420.617,277.746 413.283,298.307 412.815,299.618C405.993,318.746 414.695,332.729 409.509,325.494C408.761,323.357 407.127,312.951 403.842,322.622C403.63,323.247 403.898,323.31 401.779,330.599C401.598,331.624 397.29,359.606 398.708,337.519C399.231,329.382 405.113,314.421 402.559,314.231C399.01,313.968 399.401,315.1 392.322,320.169C391.373,320.848 391.376,320.27 390.533,319.505C394.548,314.279 399.407,313.182 405.359,308.331C406.712,307.228 407.704,306.42 414.424,288.491C415.642,285.241 405.997,290.268 405.472,290.386C402.144,291.137 405.227,288.193 405.797,287.977C423.885,281.133 422.805,272.174 430.724,263.793C440.065,253.907 419.687,274.837 430.264,304.48Z" style="fill:rgb(224,249,251);"/>
            </g>
            <g transform="matrix(1.373047,0,0,1.373047,-307.789132,-28.897753)">
                <path d="M402.785,292.888C391.292,297.896 385.863,305.273 387.667,300.517C389.183,296.518 415.085,280.97 415.528,280.534C416.303,279.77 420.757,275.383 423.7,269.661C423.906,269.26 424.122,269.578 427.516,265.514C433.621,258.203 434.905,256.333 435.485,255.489C435.631,255.275 438.753,250.728 438.574,254.506C438.574,254.513 433.989,262.72 433.421,266.486C432.861,270.191 429.497,272.572 429.621,287.495C429.68,294.59 429.225,294.573 430.678,301.481C430.621,301.717 430.744,301.712 430.264,304.48C419.687,274.837 440.065,253.907 430.724,263.793C422.805,272.174 423.885,281.133 405.797,287.977C405.227,288.193 402.144,291.137 405.472,290.386C405.997,290.268 415.642,285.241 414.424,288.491C407.704,306.42 406.712,307.228 405.359,308.331C399.407,313.182 394.548,314.279 390.533,319.505C390.557,319.94 389.647,320.051 389.671,320.486C389.712,321.244 390.549,321.806 390.662,321.883C391.234,322.267 391.288,321.573 391.822,321.932C385.771,327.533 386.939,328.309 383.51,334.513C380.553,339.864 382.095,322.765 394.418,313.399C394.649,313.224 394.63,313.363 397.41,311.368C399.477,309.885 399.377,309.871 401.455,308.44C401.842,308.174 402.118,307.724 402.56,307.567C404.756,306.787 404.668,306.666 405.63,304.575C406.144,303.459 412.291,290.099 410.871,290.135C407.888,290.212 408.089,290.798 405.325,292.081C403.668,291.795 403.657,291.692 403.535,291.772C403.161,292.019 403.159,292.641 402.785,292.888Z" style="fill:rgb(20,121,149);"/>
            </g>
            <g transform="matrix(1.373047,0,0,1.373047,-307.789132,-28.897753)">
                <path d="M462.501,418.471C451.326,418.897 447.029,414.568 443.858,412.251C443.633,412.088 443.565,411.766 443.513,411.494C441.931,403.318 448.219,408.066 448.601,408.354C454.628,412.904 469.433,412.594 474.55,409.627C477.558,407.883 479.979,407.983 477.652,405.402C473,400.241 485.114,401.591 485.596,406.461C486.139,411.956 482.775,411.955 482.356,412.337C482.242,412.442 483.102,412.99 480.552,414.575C473.456,418.986 466.727,418.385 465.492,418.275C464.495,418.34 463.498,418.405 462.501,418.471Z" style="fill:rgb(19,118,147);"/>
            </g>
            <g transform="matrix(1.373047,0,0,1.373047,-307.789132,-28.897753)">
                <path d="M437.987,349.85C440.448,345.341 441.542,344.298 441.956,343.904C442.678,343.215 443.965,343.1 448.585,354.469C454.095,368.03 442.595,371.35 438.671,369.056C429.66,363.786 436.48,353.084 437.987,349.85Z" style="fill:rgb(21,115,143);"/>
            </g>
            <g transform="matrix(1.373047,0,0,1.373047,-307.789132,-28.897753)">
                <path d="M418.853,263.728C418.592,264.413 413.492,281.197 408.602,280.803C407.465,280.711 407.519,280.818 406.501,281.31C404.998,282.036 393.222,277.473 405.404,267.399C407.89,265.342 408.288,265.992 410.64,263.81C410.824,263.64 411.046,264.13 413.52,262.56C414.819,261.736 422.529,259.748 418.853,263.728Z" style="fill:rgb(20,111,137);"/>
            </g>
            <g transform="matrix(1.373047,0,0,1.373047,-307.789132,-28.897753)">
                <path d="M429.504,306.133C430.145,306.6 430.786,307.067 431.427,307.534C437.198,330.517 426.625,304.946 426.5,304.5C426.177,303.354 426.004,303.435 421.795,290.374C421.321,288.904 421.92,287.672 420.484,288.423C418.15,289.643 414.928,299.495 414.593,300.518C413.526,303.78 413.584,304.207 413.629,304.535C413.9,306.518 411.22,306.441 413.304,329.552C413.578,332.59 415.854,337.927 416.153,338.627C419.85,347.295 413.755,338.578 413.676,338.395C410.684,331.389 410.228,331.688 407.432,324.55L409.509,325.494C414.695,332.729 405.993,318.746 412.815,299.618C413.283,298.307 420.617,277.746 422.817,285.378C425.936,296.195 426.023,301.128 429.504,306.133Z" style="fill:rgb(20,122,151);"/>
            </g>
            <g transform="matrix(1.373047,0,0,1.373047,-307.789132,-28.897753)">
                <path d="M495.381,399.102C495.08,399.17 494.8,398.755 494.5,398.823C493.662,399.012 493.642,399.408 493.638,399.496C493.601,400.251 494.452,399.787 494.415,400.553C498.666,405.176 497.135,405.871 496.511,410.506C496.438,411.046 493.569,414.385 492.279,415.172C490.111,416.492 482.336,419.419 481.457,419.75C480.472,419.096 479.514,419.117 480.459,418.481C482.773,416.924 482.719,416.958 482.778,416.926C483.865,416.333 495.794,409.836 490.497,403.502C489.942,402.84 483.505,399.623 482.519,399.427C470.324,397.002 489.284,397.512 489.177,395.548C489.158,395.201 488.943,394.866 488.996,394.523C489.806,389.237 508.993,400.929 495.381,399.102Z" style="fill:rgb(17,129,161);"/>
            </g>
            <g transform="matrix(1.373047,0,0,1.373047,-307.789132,-28.897753)">
                <path d="M390.533,319.505C391.376,320.27 391.373,320.848 392.322,320.169C399.401,315.1 399.01,313.968 402.559,314.231C405.113,314.421 399.231,329.382 398.708,337.519C397.29,359.606 401.598,331.624 401.779,330.599C402.092,331.58 402.405,332.56 402.718,333.541C396.282,366.254 403.24,366.631 402.036,369.219C401.55,370.264 398.891,369.992 397.754,355.473C397.618,353.746 396.799,343.541 396.715,342.503C397.24,340.572 397.292,340.594 396.845,338.589C398.996,323.405 400.049,323.654 400.591,318.489C400.748,316.996 399.928,317.462 399.509,317.401C397.534,317.115 398.023,318.44 391.822,321.932C391.288,321.573 391.234,322.267 390.662,321.883C390.549,321.806 389.712,321.244 389.671,320.486C389.647,320.051 390.557,319.94 390.533,319.505Z" style="fill:rgb(15,123,152);"/>
            </g>
            <g transform="matrix(1.373047,0,0,1.373047,-307.789132,-28.897753)">
                <path d="M384.509,343.502C384.586,343.319 389.652,325.037 392.548,339.478C393.246,342.96 396.299,354.16 391.518,355.556C383.493,357.901 384.431,344.615 384.509,343.502Z" style="fill:rgb(22,118,144);"/>
            </g>
            <g transform="matrix(1.373047,0,0,1.373047,-307.789132,-28.897753)">
                <path d="M437.261,357.414C441.486,348.105 441.02,347.402 442.508,347.425C442.91,347.432 447.614,357.326 447.801,359.452C448.704,369.727 433.907,370.257 437.261,357.414Z" style="fill:rgb(246,254,254);"/>
            </g>
            <g transform="matrix(1.373047,0,0,1.373047,-307.789132,-28.897753)">
                <path d="M440.338,274.951C440.621,275.179 440.905,275.406 441.188,275.634C445.335,289.49 446.47,289.296 446.118,290.499C446.051,290.727 445.299,293.294 445.239,293.345C436.416,300.835 434.438,285.425 435.68,283.555C436.36,282.531 436.552,282.631 436.386,281.462C436.377,281.393 436.628,279.431 437.641,277.561C439.493,274.144 440.337,274.952 440.338,274.951Z" style="fill:rgb(22,122,149);"/>
            </g>
            <g transform="matrix(1.373047,0,0,1.373047,-307.789132,-28.897753)">
                <path d="M422.02,302.715C422.278,303.87 424.673,309.046 424.68,310.449C424.687,311.658 424.776,311.575 425.422,312.522C425.602,312.787 425.668,313.144 425.627,313.462C425.574,313.869 425.027,314.207 425.152,314.599C425.168,314.648 426.611,314.911 426.327,317.449C425.537,324.507 411.864,323.509 417.4,306.455C417.553,305.982 419.443,300.162 421.357,301.664C421.683,301.92 421.694,302.46 422.02,302.715Z" style="fill:rgb(20,118,146);"/>
            </g>
            <g transform="matrix(1.373047,0,0,1.373047,-307.789132,-28.897753)">
                <path d="M440.398,401.931C424.779,406.242 446.35,423.705 456.638,421.007C460.119,421.226 460.006,421.413 463.51,421.796C468.57,422.347 473.681,420.563 477.298,420.814C476.968,423.04 474.915,423.816 460.498,425.547C460.062,425.321 459.931,424.694 459.495,424.468C458.217,423.805 444.8,423.233 435.67,414.314C429.33,408.12 434.162,398.197 440.398,401.931Z" style="fill:rgb(86,179,201);"/>
            </g>
            <g transform="matrix(1.373047,0,0,1.373047,-307.789132,-28.897753)">
                <path d="M471.396,413.07C474.038,412.148 481.162,410.642 480.197,405.4C479.914,403.862 482.07,404.916 482.159,404.988C489.438,410.857 466.896,422.548 447.709,413.14C444.461,411.547 444.247,407.81 446.552,409.408C455.4,415.541 462.617,414.333 471.396,413.07Z" style="fill:rgb(215,250,251);"/>
            </g>
            <g transform="matrix(1.373047,0,0,1.373047,-307.789132,-28.897753)">
                <path d="M435.417,397.136C440.358,396.538 441.225,396.118 443.335,400.562C444.037,402.04 442.934,401.59 441.426,402.195L440.398,401.931C434.162,398.197 429.33,408.12 435.67,414.314C444.8,423.233 458.217,423.805 459.495,424.468C459.931,424.694 460.062,425.321 460.498,425.547C453.665,424.742 450.064,425.626 439.481,419.534C426.691,412.172 430.994,404.082 432.693,402.598C434.64,400.897 432.445,400.468 432.423,400.276C436.637,398.34 435.35,397.289 435.417,397.136Z" style="fill:rgb(18,134,166);"/>
            </g>
            <g transform="matrix(1.373047,0,0,1.373047,-307.789132,-28.897753)">
                <path d="M406.545,278.862C392.476,277.202 418.323,258.685 415.534,266.51C411.209,278.646 408.582,278.191 406.545,278.862Z" style="fill:rgb(243,254,253);"/>
            </g>
            <g transform="matrix(1.373047,0,0,1.373047,-307.789132,-28.897753)">
                <path d="M390.918,343.414C392.834,353.568 390.316,353.471 389.561,353.23C383.68,351.353 388.457,333.433 390.257,339.579C390.622,340.824 390.553,342.169 390.918,343.414Z" style="fill:rgb(233,254,253);"/>
            </g>
            <g transform="matrix(1.373047,0,0,1.373047,-307.789132,-28.897753)">
                <path d="M440.398,401.931L441.426,402.195C440.878,402.554 435.806,405.87 437.601,409.445C441.478,417.166 453.147,419.861 456.638,421.007C446.35,423.705 424.779,406.242 440.398,401.931Z" style="fill:rgb(22,129,159);"/>
            </g>
            <g transform="matrix(1.373047,0,0,1.373047,-307.789132,-28.897753)">
                <path d="M422.873,312.376C425.903,321.745 419.966,318.811 419.566,318.431C416.344,315.374 419.968,300.768 421.593,307.458C422.201,309.963 422.225,309.884 422.873,312.376Z" style="fill:rgb(236,254,253);"/>
            </g>
            <g transform="matrix(1.373047,0,0,1.373047,-307.789132,-28.897753)">
                <path d="M441.848,284.352C442.099,284.977 445.986,294.65 440.435,292.649C435.913,291.019 437.977,272.351 441.239,282.598C441.427,283.188 441.66,283.763 441.848,284.352Z" style="fill:rgb(235,254,253);"/>
            </g>
            <g transform="matrix(1.373047,0,0,1.373047,-307.789132,-28.897753)">
                <path d="M495.37,405.526C495.759,414.107 489.453,414.89 490.722,412.577C491.461,411.228 496.907,406.037 489.638,401.252C489.448,401.127 485.152,398.299 488.489,398.65C492.589,399.081 495.062,404.812 495.37,405.526Z" style="fill:rgb(163,230,240);"/>
            </g>
            <g transform="matrix(1.373047,0,0,1.373047,-307.789132,-28.897753)">
                <path d="M407.432,324.55C407.278,324.255 407.593,323.846 407.439,323.551C405.695,320.207 404.226,326.904 402.718,333.541C402.405,332.56 402.092,331.58 401.779,330.599C403.898,323.31 403.63,323.247 403.842,322.622C407.127,312.951 408.761,323.357 409.509,325.494L407.432,324.55Z" style="fill:rgb(22,117,144);"/>
            </g>
            <g transform="matrix(1.373047,0,0,1.373047,-307.789132,-28.897753)">
                <path d="M435.417,397.136C435.35,397.289 436.637,398.34 432.423,400.276C429.795,401.252 424.809,406.524 427.613,400.538C428.215,399.879 434.781,397.378 435.417,397.136Z" style="fill:rgb(6,127,163);"/>
            </g>
            <g transform="matrix(1.373047,0,0,1.373047,-307.789132,-28.897753)">
                <path d="M432.207,394.827C429.309,398.424 423.587,396.818 427.418,395.354C430.324,394.244 430.321,394.403 432.207,394.827Z" style="fill:rgb(146,219,228);"/>
            </g>
            <g transform="matrix(1.373047,0,0,1.373047,-307.789132,-28.897753)">
                <path d="M493.542,395.358C493.693,395.431 499.754,398.48 493.505,397.452C493.339,397.425 488.087,395.66 493.542,395.358Z" style="fill:rgb(152,222,231);"/>
            </g>
            <g transform="matrix(1.373047,0,0,1.373047,-307.789132,-28.897753)">
                <path d="M430.678,301.481C431.449,304.491 431.505,304.406 431.427,307.534C430.786,307.067 430.145,306.6 429.504,306.133C429.758,305.582 430.011,305.031 430.264,304.48C430.744,301.712 430.621,301.717 430.678,301.481Z" style="fill:rgb(27,149,182);"/>
            </g>
            <g transform="matrix(1.373047,0,0,1.373047,-307.789132,-28.897753)">
                <path d="M462.501,418.471C463.498,418.405 464.495,418.34 465.492,418.275C463.977,418.844 464.025,418.891 462.501,418.471Z" style="fill:rgb(24,144,177);"/>
            </g>
            <g transform="matrix(1.373047,0,0,1.373047,-307.789132,-28.897753)">
                <path d="M495.381,399.102L494.415,400.553C494.452,399.787 493.601,400.251 493.638,399.496C493.642,399.408 493.662,399.012 494.5,398.823C494.8,398.755 495.08,399.17 495.381,399.102Z" style="fill:rgb(40,161,198);"/>
            </g>
            <g transform="matrix(1.373047,0,0,1.373047,-307.789132,-28.897753)">
                <path d="M396.845,338.589C397.292,340.594 397.24,340.572 396.715,342.503C396.758,341.198 396.802,339.893 396.845,338.589Z" style="fill:rgb(26,148,180);"/>
            </g>
            <g transform="matrix(1.373047,0,0,1.373047,-307.789132,-28.897753)">
                <path d="M402.785,292.888C403.159,292.641 403.161,292.019 403.535,291.772C403.657,291.692 403.668,291.795 405.325,292.081L402.785,292.888Z" style="fill:rgb(28,153,186);"/>
            </g>
        </g>
    </g>
</svg>
