<?xml version="1.0" encoding="UTF-8" standalone="no"?>
<!DOCTYPE svg PUBLIC "-//W3C//DTD SVG 1.1//EN" "http://www.w3.org/Graphics/SVG/1.1/DTD/svg11.dtd">
<svg width="100%" height="100%" viewBox="0 0 34 20" version="1.1" xmlns="http://www.w3.org/2000/svg" xmlns:xlink="http://www.w3.org/1999/xlink" xml:space="preserve" xmlns:serif="http://www.serif.com/" style="fill-rule:evenodd;clip-rule:evenodd;stroke-linejoin:round;stroke-miterlimit:2;">
    <g transform="matrix(1,0,0,1,-8.42679,0.487424)">
        <g transform="matrix(0,1,-1,0,56.800636,0.161877)">
            <g transform="matrix(0.155725,0.095574,-0.097258,0.15847,16.925178,-4.846002)">
                <path d="M65.441,95.364C68.006,96.533 67.978,96.743 70.73,96.122C71.139,96.029 71.289,95.41 71.698,95.318C74.048,98.43 73.499,98.653 74.653,102.435C73.822,104.138 73.408,104.044 73.757,105.435C76.978,118.251 76.719,118.467 79.151,120.614C77.991,126.594 80.204,126.345 82.728,139.435C83.113,140.56 83.051,140.455 83.441,141.518C84.463,144.303 85.617,143.531 86.267,145.601C87.38,148.52 87.487,151.591 88.684,153.418C88.592,153.788 87.555,153.711 88.67,159.445C88.757,159.891 90.08,163.477 90.047,164.504C90.023,165.253 89.611,165.999 89.761,166.733C89.854,167.187 90.617,167.295 90.71,167.749C89.659,168.575 89.714,168.48 88.455,169.037C88.024,168.613 87.904,169.316 87.518,168.935C86.642,168.072 87.219,167.785 86.358,166.972C85.911,166.55 85.438,167.425 79.6,163.327C70.903,157.222 70.833,163.367 65.775,172.687C64.755,174.47 63.228,176.529 62.99,176.851C59.775,181.189 59.681,181.203 59.754,181.661C59.83,182.146 60.676,182.259 60.752,182.744C60.478,183.07 60.205,183.397 59.931,183.724C57.095,185.235 56.964,185.434 56.745,188.632C56.493,189.015 56.241,189.397 55.99,189.779C51.789,193.398 48.624,201.996 49.231,204.343L48.833,204.631C48.745,204.75 43.152,210.716 45.936,216.541C45.893,216.947 45.619,219.553 44.888,221.538C43.598,223.375 43.646,223.329 42.85,225.502L42.961,226.438C41.605,226.594 41.68,227.138 40.378,226.735C40.239,226.692 34.97,225.598 34.499,225.5C34.361,226.737 34.464,226.719 33.862,227.754L33.5,226.5C32.717,225.378 32.87,224.89 31.476,225.171C30.78,225.312 30.174,225.775 29.475,225.9C27.204,226.307 27.05,222.525 25.276,220.708C25.248,219.975 26.108,220.499 26.079,219.746C26.072,219.565 26.07,219.495 25.161,217.666C23.737,214.799 23.226,215.309 22.02,214.727C21.776,214.356 21.531,213.985 21.286,213.615C21.726,212.552 22.472,212.572 21.508,210.496C20.606,208.553 19.081,208.56 18.958,208.462C18.892,207.959 18.52,205.087 16.262,202.719C16.219,201.872 17.224,202.431 17.184,201.646C17.172,201.394 17.168,201.329 16.059,198.697C14.303,194.53 14.676,194.415 12.194,190.613C11.901,189.577 11.609,188.541 11.317,187.506C11.274,186.869 11.232,186.233 11.189,185.597C10.865,184.567 10.542,183.537 10.218,182.508C10.184,181.878 10.15,181.248 10.117,180.619C11.024,176.969 9.717,177.259 9.139,176.506C9.196,170.497 9.175,170.586 9.132,164.493C10.511,162.07 10.981,162.047 10.083,159.382C10.134,158.749 10.185,158.116 10.236,157.484C10.824,156.017 11.062,156.133 10.833,154.637C11.273,153.578 11.237,153.642 11.261,152.486C11.312,152.364 12.546,152.65 12.107,149.357C12.517,148.902 16.39,144.603 15.407,142.46C15.189,141.984 14.494,141.844 14.275,141.367C15.078,140.296 15.896,138.606 16.017,138.355C16.039,138.344 18.043,139.363 18.254,134.401C21.629,128.914 16.464,130.719 13.364,128.814C13.266,128.772 13.402,128.041 10.379,127.783C8.164,125.544 8.297,125.048 7.571,125.391C6.993,125.664 6.801,126.481 6.224,126.753C-0.129,119.928 7.909,121.155 12.252,117.246C12.753,117.155 12.877,118.368 13.377,118.276C17.456,117.532 24.398,112.669 25.278,112.053C30.44,112.321 29.981,110.559 38.376,107.191C40.547,106.319 40.116,105.284 42.425,105.333C43.438,105.354 43.27,104.987 54.372,101.156C58.672,99.672 58.211,98.999 59.468,98.293C62.65,97.018 62.635,97.181 65.441,95.364L44.732,138.604C44.666,138.916 43.909,142.491 43.902,142.5C43.494,142.972 42.66,142.912 42.252,143.384C39.652,149.126 36.939,155.491 32.738,158.759C31.578,159.662 21.3,167.659 19.49,171.495C15.118,180.761 25.339,167.988 30.725,163.885C33.684,161.631 34.037,162.497 35.505,163.501C38.062,159.866 35.628,158.836 38.319,155.322C40.543,152.417 39.042,151.221 42.232,149.583C44.597,146.529 43.688,146.108 43.924,145.883C45.056,144.804 45.145,144.972 45.85,143.669C46.15,143.324 46.45,142.98 46.75,142.635C46.714,141.914 46.753,141.979 46.981,139.724C46.459,139.284 45.937,138.844 45.416,138.404L44.732,138.604L65.441,95.364L57.256,116.27C57.389,116.585 59.979,118.585 57.734,121.589C57.04,122.518 56.908,124.809 56.591,125.55C55.59,127.884 55.703,127.895 56.013,130.449C56.78,133.095 56.974,133.105 56.839,133.3C56.428,133.898 55.477,133.965 55.066,134.563C54.964,135.517 54.863,136.471 54.762,137.425C55.991,141.369 56.491,143.894 56.605,144.465L57.093,143.419L58.239,142.392C58.447,141.064 58.656,139.736 58.864,138.408C57.609,136.656 57.477,136.549 58.334,134.541C55.845,117.119 68.599,107.559 67.192,104.635C65.525,101.17 60.761,112.212 57.256,116.27L65.441,95.364L46.941,116.651C47.125,116.37 50.559,111.102 46.494,112.477C30.855,117.769 32.706,127.712 37.296,127.827C37.548,127.352 36.887,126.697 37.138,126.222C37.226,126.055 37.584,126.836 39.32,125.309C41.85,123.082 41.785,115.934 45.515,117.498C45.99,117.216 46.466,116.933 46.941,116.651L65.441,95.364L75.008,134.605C74.006,132.352 74.086,132.379 73.181,130.684C68.866,122.6 64.137,134.292 67.637,138.328C68.39,139.197 68.716,138.675 69.449,139.515C71.034,141.331 71.001,141.956 73.366,141.354C75.179,138.293 74.697,138.211 75.008,134.605L65.441,95.364L42.135,153.41C39.81,156.388 41.207,161.897 40.409,162.448C39.823,162.852 39.041,162.863 38.402,163.175C37.71,163.514 36.981,165.268 36.473,165.273C35.975,165.278 35.701,164.48 35.203,164.485C34.687,165.954 34.653,165.841 34.457,167.486C36.042,166.924 36.149,167.066 37.237,168.413C37.605,167.76 37.972,167.106 38.339,166.453C38.752,162.28 40.387,165.354 40.475,165.518C40.58,165.717 40.509,165.723 40.937,168.289C44.762,178.802 45.662,178.947 46.397,178.395C46.759,178.124 46.648,178.054 47.101,176.384C46.433,174.022 46.392,174.103 46.003,171.748C41.166,162.648 43.242,155.778 43.036,154.425C42.968,153.978 42.203,153.857 42.135,153.41L65.441,95.364L48.597,130.573C46.121,131.017 43.914,132.864 35.682,136.816C33.158,138.272 33.245,138.229 30.636,139.704C30.064,140.06 20.539,145.983 25.497,146.381C26.35,146.449 30.537,142.218 42.537,136.761C45.048,135.619 44.693,138.408 44.732,138.604L45.416,138.404C46.258,137.455 45.893,137.313 46.759,136.285C46.438,135.928 45.157,134.5 48.597,130.573L65.441,95.364L57.256,116.27C56.46,117.772 56.592,117.706 56.184,119.282C55.555,120.57 55.616,120.484 54.754,121.631L54.573,122.538C52.668,125.784 53.477,126.298 50.603,128.604C48.994,129.75 48.992,129.727 48.866,129.842C48.535,130.143 48.931,130.269 48.597,130.573C45.157,134.5 46.438,135.928 46.759,136.285C48.354,135.758 48.317,136.52 48.394,136.414C49.621,134.728 47.679,132.325 53.504,130.87C54.34,130.729 55.177,130.589 56.013,130.449C55.703,127.895 55.59,127.884 56.591,125.55C56.908,124.809 57.04,122.518 57.734,121.589C59.979,118.585 57.389,116.585 57.256,116.27L65.441,95.364L27.381,186.535C27.167,185.831 27.015,185.109 26.802,184.404C21.278,166.155 21.622,187.985 22.766,191.416C23.292,191.811 23.817,192.206 24.343,192.601L25.582,190.661C25.547,190.065 24.331,190.012 24.296,189.416C24.293,189.372 24.288,189.396 27.381,186.535L65.441,95.364L58.864,138.408C58.656,139.736 58.447,141.064 58.239,142.392C57.857,142.734 57.475,143.077 57.093,143.419L56.605,144.465C57.279,146.152 61.587,163.571 62.423,156.485C62.694,154.186 59.212,139.84 58.864,138.408L65.441,95.364L42.232,149.583C39.042,151.221 40.543,152.417 38.319,155.322C35.628,158.836 38.062,159.866 35.505,163.501L35.203,164.485C35.701,164.48 35.975,165.278 36.473,165.273C36.981,165.268 37.71,163.514 38.402,163.175C39.041,162.863 39.823,162.852 40.409,162.448C41.207,161.897 39.81,156.388 42.135,153.41C42.167,152.134 42.2,150.859 42.232,149.583L65.441,95.364L50.702,155.552C50.27,156.208 45.401,163.6 51.559,165.337C54.848,166.265 56.159,163.367 56.156,163.316C56.13,162.896 55.36,162.778 55.334,162.359C52.552,165.384 50.71,156.695 50.702,155.552L65.441,95.364L45.515,117.498C41.785,115.934 41.85,123.082 39.32,125.309C37.584,126.836 37.226,126.055 37.138,126.222C36.887,126.697 37.548,127.352 37.296,127.827C37.659,127.971 39.162,128.571 42.122,127.109C42.291,123.247 43.951,121.718 45.515,117.498L65.441,95.364L51.348,153.396C51.15,153.795 50.951,154.193 50.753,154.592L50.702,155.552C50.71,156.695 52.552,165.384 55.334,162.359C58.15,159.148 54.323,159.135 53.418,154.525C52.728,154.149 52.038,153.772 51.348,153.396L65.441,95.364L53.504,130.87C47.679,132.325 49.621,134.728 48.394,136.414C48.317,136.52 48.354,135.758 46.759,136.285C45.893,137.313 46.258,137.455 45.416,138.404C45.937,138.844 46.459,139.284 46.981,139.724C47.564,139.357 48.146,138.989 48.729,138.621C49.993,136.914 49.993,137.053 51.025,135.172C53.076,131.437 54.08,134.47 54.762,137.425C54.863,136.471 54.964,135.517 55.066,134.563C54.774,133.407 54.427,133.563 54.54,132.478C54.69,131.03 53.89,131.469 53.504,130.87L65.441,95.364L36.508,170.501C36.363,170.846 34.718,174.76 33.019,173.616C32.726,173.419 33.187,172.762 32.895,172.564C32.215,176.036 32.591,176.025 32.112,179.517C34.197,180.31 34.273,180.29 35.028,182.465C36.143,177.553 35.28,177.455 36.969,172.697C36.815,171.965 36.662,171.233 36.508,170.501L65.441,95.364L20.786,192.994C20.226,193.827 18.089,195.381 24.388,198.695C27.349,200.252 29.347,196.353 26.696,196.223C23.157,196.051 23.47,195.334 20.786,192.994L65.441,95.364L32.112,179.517L31.77,180.515L32.13,181.488C32.222,182.491 32.315,183.494 32.407,184.498C33.193,186.4 33.194,186.419 32.656,188.439C33.735,189.178 33.645,189.125 33.735,189.178C35.256,190.069 34.847,186.797 34.852,186.504C34.891,184.441 34.938,184.541 35.028,182.465C34.273,180.29 34.197,180.31 32.112,179.517L65.441,95.364L46.941,116.651C46.466,116.933 45.99,117.216 45.515,117.498C43.951,121.718 42.291,123.247 42.122,127.109C47.046,121.897 44.445,120.576 46.941,116.651L65.441,95.364L45.85,143.669C45.145,144.972 45.056,144.804 43.924,145.883C43.688,146.108 44.597,146.529 42.232,149.583C42.2,150.859 42.167,152.134 42.135,153.41C42.627,152.736 44.819,149.73 45.85,143.669L65.441,95.364L50.668,151.562C50.895,152.174 51.121,152.785 51.348,153.396C52.038,153.772 52.728,154.149 53.418,154.525C54.321,148.556 51.932,149.419 51.603,149.67C51.469,149.773 51.533,149.81 50.668,151.562L65.441,95.364L36.542,169.521C36.351,169.516 34.163,169.464 34.163,169.464C33.924,169.614 34.311,170.156 34.071,170.306C33.844,170.691 33.616,171.076 33.388,171.46L32.895,172.564C33.187,172.762 32.726,173.419 33.019,173.616C34.718,174.76 36.363,170.846 36.508,170.501L36.542,169.521L65.441,95.364L27.381,186.535C24.288,189.396 24.293,189.372 24.296,189.416C24.331,190.012 25.547,190.065 25.582,190.661C26.286,190.953 26.99,191.246 27.693,191.538C28.17,188.927 27.78,188.976 27.381,186.535L65.441,95.364L54.573,122.538C51.688,125.019 51.138,124.799 50.603,128.604C53.477,126.298 52.668,125.784 54.573,122.538L65.441,95.364L53.504,130.87C53.89,131.469 54.69,131.03 54.54,132.478C54.427,133.563 54.774,133.407 55.066,134.563C55.477,133.965 56.428,133.898 56.839,133.3C56.974,133.105 56.78,133.095 56.013,130.449C55.177,130.589 54.34,130.729 53.504,130.87L65.441,95.364L25.582,190.661L24.343,192.601C24.555,192.742 26.234,193.86 27.523,192.51C27.75,192.272 27.466,191.776 27.693,191.538C26.99,191.246 26.286,190.953 25.582,190.661L65.441,95.364L34.457,167.486C33.823,169.422 33.798,169.403 33.773,169.577C33.706,170.036 34.13,169.901 34.071,170.306C34.311,170.156 33.924,169.614 34.163,169.464C34.163,169.464 36.351,169.516 36.542,169.521L36.841,168.642L37.237,168.413C36.149,167.066 36.042,166.924 34.457,167.486L65.441,95.364L44.732,138.604C43.018,140.724 43.153,140.752 42.252,143.384C42.66,142.912 43.494,142.972 43.902,142.5C43.909,142.491 44.666,138.916 44.732,138.604L65.441,95.364Z" style="fill:rgb(130,192,187);fill-opacity:0.94;"/>
                <path d="M78.609,170.462C79.103,175.403 80.151,174.985 82.763,181.294C82.713,181.75 81.682,181.707 82.764,184.363C83.576,186.356 83.914,186 85.672,187.385C86.113,188.267 86.554,189.15 86.995,190.033C85.34,192.793 84.373,192.655 85.261,195.824C86.229,197.387 86.258,198.729 89.275,201.694C88.679,204.639 88.73,207.137 90.528,205.541C92.198,204.059 91.457,202.428 91.485,202.332C97.359,203.605 93.39,200.014 93.296,199.963C93.258,199.943 90.114,199.397 89.45,198.614C87.955,196.854 87.926,196.964 86.343,195.249C86.594,195.028 86.515,195.003 88.973,192.003C89.837,192.63 89.803,192.567 90.686,193.246C92.983,195.014 93.08,193.534 93.757,193.274C95.268,194.992 95.362,194.714 97.434,195.669C97.676,196.144 97.391,196.781 97.633,197.256C98.211,198.387 107.711,201.89 109.698,204.243C113.675,208.956 117.644,204.624 130.823,222.357C131.109,223.045 131.395,223.732 131.681,224.419C131.771,225.05 131.861,225.681 131.951,226.313L130.5,226.441L129.5,225.295C125.718,222.37 125.403,218.61 122.382,222.395C121.168,223.915 121.412,223.967 121.526,225.85C121.442,226.015 118.983,227.965 122.607,228.556C124.386,230.07 124.234,230.262 126.514,230.824C130.052,231.697 129.392,232.609 129.879,236.252C130.133,236.984 130.388,237.717 130.642,238.45C130.636,238.948 131.73,238.983 131.724,239.481C131.698,241.564 130.731,240.606 128.689,240.296C128.484,240.851 127.574,240.927 127.37,241.482C127.314,241.632 127.483,241.605 127.292,243.479C127.216,244.223 128.678,245.13 130.901,247.694C130.344,249.847 129.892,249.663 129.999,251.771C130.175,254.223 129.578,254.03 127.725,255.709C126.288,255.822 125.852,255.723 125.699,257.709C120.533,263.326 120.42,264.264 116.621,263.797C115.783,263.975 115.841,263.939 115.783,263.975C115.446,264.181 115.984,264.378 115.598,264.615C112.958,264.622 113.124,265.305 109.612,265.932C108.893,266.099 106.511,266.651 100.552,267.704C102.392,260.367 100.783,254.578 99.14,259.266C98.432,261.288 97.275,260.096 97.066,260.189C97.329,257.398 93.128,258.783 86.483,257.812C69.984,255.401 69.404,249.503 68.373,247.534C69.336,245.456 70.17,243.773 70.331,243.448C74.571,239.436 69.672,240.31 69.456,240.438C69.056,240.674 69.821,241.596 69.421,241.833C66.805,243.096 66.609,243.001 65.069,246.299C64.981,248.009 65.006,247.931 65.493,249.503C66.134,252.073 66.331,251.946 68.266,253.745C68.609,254.081 68.952,254.417 69.295,254.754C66.222,258.167 65.684,257.13 65.5,257.178C65.247,256.716 64.324,256.963 64.071,256.5C63.769,255.947 64.215,255.229 64.097,254.611C63.978,253.992 62.645,252.654 62.495,252.504C62.181,252.188 59.08,249.077 58.5,248.625C58.237,248.419 57.763,248.787 57.5,248.582L56.781,249.5L56.16,250.713C56.144,250.697 53.984,250.213 54.011,247.829C53.78,246.876 52.144,240.11 49.301,236.506C48.503,230.499 48.402,227.295 48.377,226.491C49.744,221.415 51.73,221.687 50.619,216.503C51.946,211.946 51.628,211.941 53.165,207.398C54.474,203.833 54.431,203.829 54.549,203.521C60.667,190.815 62.249,189.885 62.173,189.277C62.119,188.842 61.366,188.717 61.311,188.281C63.277,186.606 63.89,185.597 64.057,185.321C64.587,184.868 66.541,183.195 69.363,178.416C69.596,178.021 70.175,177.75 70.154,177.292C70.134,176.845 69.287,176.733 69.266,176.286C69.703,175.785 69.634,175.767 70.737,173.591C72.185,173.358 72.08,173.41 72.185,173.358C73.105,172.906 72.146,169.606 78.609,170.462L92.272,213.635C91.45,213.543 91.054,212.509 90.118,214.168C88.722,216.643 88.681,216.496 86.969,218.698C86.612,220.198 86.664,220.12 85.971,221.564C84.468,226.292 84.82,226.569 85.155,226.832C86.455,227.854 85.732,230.257 86.382,231.581C87.791,234.448 86.441,235.126 88.786,237.2C90.3,238.537 90.314,238.445 90.438,238.563C93.551,241.521 90.531,242.126 90.281,242.418C90.281,242.418 90.528,244.181 90.55,244.334L91.499,244.236C93.729,242.898 96.808,241.629 97.301,241.267C104.62,234.552 98.54,227.116 96.227,222.65C94.353,219.136 93.322,219.57 93.05,215.638C92.791,214.97 92.532,214.302 92.272,213.635L78.609,170.462L85.971,221.564C85.779,221.394 85.692,221.125 85.5,220.956C84.484,220.06 73.473,238.137 87.59,244.283C89.62,245.166 89.621,244.318 90.55,244.334C90.528,244.181 90.281,242.418 90.281,242.418C90.531,242.126 93.551,241.521 90.438,238.563C90.314,238.445 90.3,238.537 88.786,237.2C86.441,235.126 87.791,234.448 86.382,231.581C85.732,230.257 86.455,227.854 85.155,226.832C84.82,226.569 84.468,226.292 85.971,221.564L78.609,170.462L108.786,246.694C107.816,247.797 107.842,247.77 106.481,248.378C98.303,251.445 98.166,250.5 89.481,250.849C88.918,251.266 88.01,250.964 87.447,251.381C86.679,251.95 87.191,252.103 87.594,254.106C88.064,254.168 89.846,254.403 93.499,254.529C96.058,253.937 95.949,253.898 98.539,253.841C100.241,253.541 100.112,253.517 101.659,252.977C102.313,252.778 108.233,250.977 109.575,249.783C109.312,248.753 109.049,247.724 108.786,246.694L78.609,170.462L71.065,193.299C69.311,196.103 70.975,196.699 69.092,199.436C64.54,206.057 71.108,213.618 77.16,208.25C77.655,207.811 77.533,207.561 77.504,207.502C77.111,206.698 76.657,207.221 76.239,206.363C74.814,209.327 73.517,207.644 72.424,204.537C72.288,204.15 72.407,204.127 71.089,199.587C69.738,194.929 73.148,194.426 73.608,194.358C72.76,194.005 71.913,193.652 71.065,193.299L78.609,170.462L73.608,194.358C73.148,194.426 69.738,194.929 71.089,199.587C72.407,204.127 72.288,204.15 72.424,204.537C73.517,207.644 74.814,209.327 76.239,206.363C77.269,203.348 78.184,203.11 76.236,200.639C74.78,197.727 74.284,197.922 74.197,194.625L73.608,194.358L78.609,170.462L89.481,250.849C81.129,249.317 80.623,249.312 78.165,246.84C76.17,244.832 73.555,248.024 77.475,250.537C80.799,252.669 86.754,253.928 87.594,254.106C87.191,252.103 86.679,251.95 87.447,251.381C88.01,250.964 88.918,251.266 89.481,250.849L78.609,170.462L116.319,219.956C113.547,219.624 113.461,218.883 111.006,220.188C113.61,222.643 115.723,222.162 114.269,225.478C113.16,228.009 116.047,232.267 116.895,228.608C117.076,227.826 117.087,227.011 117.251,226.224C117.401,225.504 121.833,224.781 116.319,219.956L78.609,170.462L120.768,246.616C118.519,248.725 119.057,249.296 112.075,254.072C108.446,256.554 112.351,256.708 113.407,256.224C117.048,254.556 116.594,253.936 120.168,252.052C122.721,249.783 123.458,248.023 123.633,247.608C123.462,247.685 121.503,248.574 121.503,248.574C121.339,248.544 121.451,248.434 120.768,246.616L78.609,170.462L69.284,239.168C71.345,238.019 71.449,237.718 71.522,237.507C72.75,233.948 66.095,237.2 61.585,240.567C59.224,242.33 61.004,244.029 62.41,243.192C65.848,241.146 65.653,240.975 69.284,239.168L78.609,170.462L113.485,236.717C114.06,241.897 116.945,239.642 120.515,243.485C121.77,242.786 121.649,242.781 122.492,241.503C119.032,237.806 115.414,237.417 113.485,236.717L78.609,170.462L61.865,236.896C70.157,230.476 56.684,234.178 56.373,236.476C56.033,238.999 60.227,237.754 60.561,237.655C60.996,237.402 61.431,237.149 61.865,236.896L78.609,170.462L92.328,210.592C90.335,209.457 90.024,210.051 89.089,212.212C87.324,216.29 86.812,216.119 86.969,218.698C88.681,216.496 88.722,216.643 90.118,214.168C91.054,212.509 91.45,213.543 92.272,213.635C92.465,212.065 92.533,212.172 92.328,210.592L78.609,170.462L122.492,241.503C121.649,242.781 121.77,242.786 120.515,243.485C121.274,245.092 121.687,245.126 120.768,246.616C121.451,248.434 121.339,248.544 121.503,248.574C121.503,248.574 123.462,247.685 123.633,247.608C124.112,246.073 124.284,246.168 124.363,244.543C124.123,243.833 123.882,243.123 123.642,242.412C123.259,242.109 122.875,241.806 122.492,241.503L78.609,170.462L109.082,243.493C110.471,243.491 111.2,242.716 111.438,244.542C111.534,245.284 112.148,245.554 112.15,245.556C112.991,242.249 112.681,241.755 109.487,240.538C109.255,240.45 105.382,238.974 106.526,241.486C106.558,241.554 108.876,243.334 109.082,243.493L78.609,170.462L109.082,243.493C109.183,245.202 109.531,245.214 108.786,246.694C109.049,247.724 109.312,248.753 109.575,249.783L110.552,249.578C111.372,248.314 112.257,248.779 112.071,247.296C111.959,246.413 112.108,246.472 112.15,245.556C112.148,245.554 111.534,245.284 111.438,244.542C111.2,242.716 110.471,243.491 109.082,243.493L78.609,170.462L122.352,233.712C117.654,231.499 117.748,234.161 118.248,234.622C119.542,235.816 120.314,235.674 122.499,236.536C122.661,235.083 122.634,235.137 122.352,233.712L78.609,170.462L93.05,215.638C93.322,219.57 94.353,219.136 96.227,222.65C96.424,222.222 97.036,222.085 97.234,221.657C97.564,220.941 94.512,216.139 94.012,215.72C93.765,215.513 93.297,215.844 93.05,215.638L78.609,170.462L94.647,206.527C95.436,208.035 95.414,207.986 96.57,209.167C97.581,208.928 97.578,209.145 98.425,208.462L98.459,207.497C97.753,206.24 96.751,202.997 94.647,206.527L78.609,170.462L58.117,213.602C58.389,213.819 58.923,216.505 61.064,213.213C62.675,210.736 60.321,209.116 58.706,211.607C58.616,211.746 58.663,211.754 58.117,213.602L78.609,170.462L71.065,193.299C71.913,193.652 72.76,194.005 73.608,194.358L74.197,194.625L74.666,193.42C74.616,193.136 73.135,185.348 71.065,193.299L78.609,170.462L122.352,233.712C122.634,235.137 122.661,235.083 122.499,236.536C124.359,237.108 124.235,237.312 126.192,237.18C126.484,234.173 125.102,234.91 122.352,233.712L78.609,170.462L109.575,249.783C108.233,250.977 102.313,252.778 101.659,252.977L102.429,253.209C103.003,253.168 106.71,252.9 109.335,251.209C110.326,250.571 109.965,250.365 110.552,249.578L109.575,249.783L78.609,170.462L74.666,193.42L74.197,194.625C74.284,197.922 74.78,197.727 76.236,200.639C76.46,200.16 77.158,200.022 77.381,199.544C77.485,199.324 74.897,193.904 74.666,193.42L78.609,170.462L51.557,225.521L52.804,227.317C57.369,230.387 55.468,226.024 55.286,225.885C55.159,225.788 55.148,225.831 53.426,225.153L51.557,225.521L78.609,170.462L97.301,241.267C96.808,241.629 93.729,242.898 91.499,244.236C91.927,244.293 92.021,245.06 92.449,245.117C92.851,245.171 93.111,244.616 93.501,244.503C94.632,244.175 94.208,243.718 95.271,243.057C96.163,242.501 96.326,243.631 97.174,243.003C98.619,241.932 97.269,241.692 97.301,241.267L78.609,170.462Z" style="fill:rgb(127,186,183);fill-opacity:0.93;"/>
                <path d="M56.16,250.713L56.781,249.5L57.5,248.582C57.763,248.787 58.237,248.419 58.5,248.625C59.08,249.077 62.181,252.188 62.495,252.504C62.645,252.654 63.978,253.992 64.097,254.611C64.215,255.229 63.769,255.947 64.071,256.5C64.324,256.963 65.247,256.716 65.5,257.178C65.684,257.13 66.222,258.167 69.295,254.754C75.276,259.991 91.803,263.082 97.066,260.189C97.275,260.096 98.432,261.288 99.14,259.266C100.783,254.578 102.392,260.367 100.552,267.704C99.694,267.833 91.976,269.002 89.722,267.191C83.015,261.803 81.508,263.832 77.378,266.999C77.157,266.943 74.618,266.295 74.618,266.295C72.741,264.956 72.67,265.191 70.425,264.706C69.599,263.677 70.041,263.346 68.219,261.958C67.755,261.605 63.71,258.525 62.332,257.662C62.017,257.465 61.534,257.904 61.219,257.707C60.93,257.366 60.64,257.025 60.351,256.684C58.685,253.405 58.619,253.499 56.16,250.713Z" style="fill:rgb(131,190,186);fill-opacity:0.94;"/>
                <path d="M34.499,225.5C34.97,225.598 40.239,226.692 40.378,226.735C41.68,227.138 41.605,226.594 42.961,226.438C43.628,229.272 42.895,229.655 45.136,231.567C46.527,234.736 47.053,239.933 47.068,240.537C47.712,242.577 47.78,242.455 48.705,244.398C49.862,246.829 44.815,252.27 40.365,242.594C39.903,240.372 39.002,240.875 38.311,238.633C37.081,234.643 31.41,232.82 33.862,227.754C34.464,226.719 34.361,226.737 34.499,225.5Z" style="fill:rgb(122,173,170);fill-opacity:0.77;"/>
                <path d="M121.526,225.85C121.412,223.967 121.168,223.915 122.382,222.395C125.403,218.61 125.718,222.37 129.5,225.295L130.5,226.441L131.951,226.313C133.148,228.827 133.092,228.815 132.934,231.546C132.648,236.484 133.739,236.415 133.11,241.393C132.986,241.884 132.107,245.351 131.555,247.525L130.901,247.694C128.678,245.13 127.216,244.223 127.292,243.479C127.483,241.605 127.314,241.632 127.37,241.482C127.574,240.927 128.484,240.851 128.689,240.296C130.731,240.606 131.698,241.564 131.724,239.481C131.73,238.983 130.636,238.948 130.642,238.45C130.388,237.717 130.133,236.984 129.879,236.252C129.392,232.609 130.052,231.697 126.514,230.824C124.234,230.262 124.386,230.07 122.607,228.556C122.995,226.873 123.104,226.628 121.526,225.85Z" style="fill:rgb(74,132,134);fill-opacity:0.96;"/>
                <path d="M105.488,207.546C106.183,207.52 111.532,207.315 112.794,212.253C112.864,215.954 112.404,216.432 116.319,219.956C113.547,219.624 113.461,218.883 111.006,220.188C109.341,221.652 109.717,222.294 107.512,222.474C103.685,220.582 104.676,219.578 101.852,216.34C102.149,216.19 101.976,215.587 102.273,215.437C102.918,215.111 107.792,218.842 106.652,215.439C106.589,215.251 103.94,212.627 103.699,212.388C105.457,208.573 106.7,212.542 108.463,212.065C110.78,211.438 105.837,207.803 105.488,207.546Z" style="fill:rgb(63,127,131);fill-opacity:0.95;"/>
                <path d="M33.388,171.46L32.895,172.564C32.215,176.036 32.591,176.025 32.112,179.517L31.77,180.515C28.542,177.968 29.033,177.525 25.542,175.392C22.057,173.263 31.38,169.139 31.5,169.219C31.889,169.48 31.69,170.239 32.079,170.5L33.388,171.46Z" style="fill:rgb(112,173,169);fill-opacity:0.96;"/>
                <path d="M75.008,134.605C79.906,137.173 79.51,137.885 79.211,138.211C78.364,139.134 75.775,138.203 77.284,141.594C79.499,146.571 73.605,141.558 73.366,141.354C75.179,138.293 74.697,138.211 75.008,134.605Z" style="fill:rgb(92,152,152);fill-opacity:0.93;"/>
                <path d="M85.261,195.824L86.343,195.249C87.926,196.964 87.955,196.854 89.45,198.614C90.114,199.397 93.258,199.943 93.296,199.963C93.39,200.014 97.359,203.605 91.485,202.332C89.411,201.853 89.458,201.713 89.275,201.694C86.258,198.729 86.229,197.387 85.261,195.824Z" style="fill:rgb(82,151,147);"/>
                <path d="M112.794,212.253C113.35,212.373 114.553,212.632 118.488,216.514C119.181,217.198 118.925,217.239 118.5,218.181L117.5,218.497L116.319,219.956C112.404,216.432 112.864,215.954 112.794,212.253Z" style="fill:rgb(101,167,166);fill-opacity:0.98;"/>
                <path d="M99.767,211.236C100.358,211.35 100.95,211.464 101.541,211.578L103.699,212.388C103.94,212.627 106.589,215.251 106.652,215.439C107.792,218.842 102.918,215.111 102.273,215.437C101.976,215.587 102.149,216.19 101.852,216.34C98.481,214.248 99.445,212.926 99.767,211.236Z" style="fill:rgb(123,188,189);fill-opacity:0.75;"/>
                <path d="M35.682,136.816C33.158,138.272 33.245,138.229 30.636,139.704L29.623,138.5L30.24,137.5C30.235,136.577 28.526,130.198 32.136,133.726C32.852,134.425 33.323,134.423 33.498,134.503C34.068,134.762 35.525,136.616 35.682,136.816Z" style="fill:rgb(98,168,164);fill-opacity:0.96;"/>
                <path d="M56.184,210.662C55.594,209.104 55.651,209.205 55.188,207.5L55.5,206.603C55.778,206.597 55.828,207.183 56.106,207.178C56.833,207.164 57.071,206.657 57.11,206.572C57.566,205.6 56.869,205.549 57.361,204.5C57.434,204.359 60.4,198.632 59.35,204.506C58.711,208.081 58.971,208.31 56.184,210.662Z" style="fill:rgb(95,165,158);"/>
                <path d="M103.495,207.488L104.5,207.494L105.488,207.546C105.837,207.803 110.78,211.438 108.463,212.065C106.7,212.542 105.457,208.573 103.699,212.388C102.487,210.104 102.722,210.006 103.495,207.488Z" style="fill:rgb(112,175,177);fill-opacity:0.58;"/>
                <path d="M86.995,190.033C87.896,191.047 88.806,191.855 88.973,192.003C86.515,195.003 86.594,195.028 86.343,195.249L85.261,195.824C84.373,192.655 85.34,192.793 86.995,190.033Z" style="fill:rgb(83,143,139);fill-opacity:0.92;"/>
                <path d="M42.85,225.502C38.135,223.627 38.107,223.582 37.871,223.212C37.714,222.965 37.359,220.201 41.5,222.764L42.227,223.5C42.435,224.167 42.642,224.834 42.85,225.502Z" style="fill:rgb(92,151,147);fill-opacity:0.94;"/>
                <path d="M77.578,188.212C79.051,188.782 79.22,188.446 80.043,189.825C82.181,193.402 76.616,192.714 76.643,189.489C76.647,188.961 77.574,188.74 77.578,188.212Z" style="fill:rgb(195,246,242);fill-opacity:0.93;"/>
                <path d="M68.175,158.884C67.933,161.373 65.76,161.86 65.517,161.483C65.356,161.233 61.1,154.269 68.175,158.884Z" style="fill:rgb(88,156,153);"/>
                <path d="M89.275,201.694C89.458,201.713 89.411,201.853 91.485,202.332C91.457,202.428 92.198,204.059 90.528,205.541C88.73,207.137 88.679,204.639 89.275,201.694Z" style="fill:rgb(86,154,152);fill-opacity:0.99;"/>
                <path d="M38.339,166.453C38.752,162.28 40.387,165.354 40.475,165.518C40.58,165.717 40.509,165.723 40.937,168.289C40.914,168.308 39.783,170.62 39.472,168.527C39.472,168.527 38.377,167.553 38.282,167.469L38.339,166.453Z" style="fill:rgb(83,118,115);fill-opacity:0.76;"/>
                <path d="M98.459,207.497C99.862,208.225 101.004,207.528 101.541,211.578C100.95,211.464 100.358,211.35 99.767,211.236C97.594,209.166 98.448,208.608 98.425,208.462L98.459,207.497Z" style="fill:rgb(67,134,131);fill-opacity:0.91;"/>
                <path d="M94.647,206.527C95.436,208.035 95.414,207.986 96.57,209.167C94.786,210.348 94.413,211.349 93.053,209.648C92.813,209.348 93.121,208.809 92.882,208.509C93.47,207.849 94.059,207.188 94.647,206.527Z" style="fill:rgb(76,135,132);fill-opacity:0.83;"/>
                <path d="M51.557,225.521C51.504,223.425 51.436,223.427 51.5,223.258C51.554,223.115 57.222,219.755 53.426,225.153L51.557,225.521Z" style="fill:rgb(89,146,142);fill-opacity:0.94;"/>
                <path d="M22.438,120.485L22.331,121.495C22.152,121.637 19.589,123.673 19.661,120.485C19.707,118.407 21.538,119.251 21.709,119.33C22.413,119.654 22.042,119.858 22.438,120.485Z" style="fill:rgb(86,150,145);fill-opacity:0.98;"/>
                <path d="M74.607,184.605C72.595,185.666 71.956,184.706 72.584,182.533C72.649,182.311 74.988,180.165 74.607,184.605Z" style="fill:rgb(52,122,118);"/>
                <path d="M46.003,171.748C46.449,172.16 47.217,172.088 47.662,172.5C49.388,174.097 48.275,174.37 47.101,176.384C46.433,174.022 46.392,174.103 46.003,171.748Z" style="fill:rgb(84,137,135);fill-opacity:0.83;"/>
                <path d="M103.495,207.488C101.671,207.096 100.968,207.24 101.346,205.412C102.057,201.981 104.378,207.218 104.5,207.494L103.495,207.488Z" style="fill:rgb(65,132,132);fill-opacity:0.95;"/>
                <path d="M58.841,171.51C57.053,175.541 56.205,171.474 56.73,170.658C56.814,170.527 57.56,169.367 58.655,170.412C58.924,170.668 58.572,171.254 58.841,171.51Z" style="fill:rgb(175,234,235);"/>
                <path d="M22.438,120.485C26.424,119.077 25.041,121.669 24.886,121.83C24.339,122.394 24.33,122.15 23.591,122.249C22.719,122.366 23.017,121.906 22.331,121.495L22.438,120.485Z" style="fill:rgb(173,238,233);fill-opacity:0.96;"/>
                <path d="M130.901,247.694L131.555,247.525L131.936,248.646C131.877,249.093 132.114,250.69 129.999,251.771C129.892,249.663 130.344,249.847 130.901,247.694Z" style="fill:rgb(126,146,148);fill-opacity:0.16;"/>
                <path d="M41.966,214.29L40.201,215.898C40.089,215.743 37.482,210.088 41.966,214.29Z" style="fill:rgb(161,229,225);"/>
                <path d="M121.526,225.85C123.104,226.628 122.995,226.873 122.607,228.556C118.983,227.965 121.442,226.015 121.526,225.85Z" style="fill:rgb(135,186,195);fill-opacity:0.62;"/>
                <path d="M69.421,241.833C69.821,241.596 69.056,240.674 69.456,240.438C69.672,240.31 74.571,239.436 70.331,243.448C70.028,242.909 69.724,242.371 69.421,241.833Z" style="fill:rgb(171,223,221);fill-opacity:0.64;"/>
                <path d="M58.334,134.541C58.788,136.538 58.853,136.439 58.864,138.408C57.609,136.656 57.477,136.549 58.334,134.541Z" style="fill:rgb(152,190,191);fill-opacity:0.25;"/>
                <path d="M36.841,168.642C37.101,169.27 37.36,169.897 37.62,170.525C37.403,171.249 37.186,171.973 36.969,172.697C36.815,171.965 36.662,171.233 36.508,170.501L36.542,169.521L36.841,168.642Z" style="fill:rgb(164,194,194);fill-opacity:0.2;"/>
                <path d="M48.729,138.621C47.548,140.54 48.035,140.732 46.75,142.635C46.714,141.914 46.753,141.979 46.981,139.724C47.564,139.357 48.146,138.989 48.729,138.621Z" style="fill:rgb(149,178,175);fill-opacity:0.29;"/>
                <path d="M38.339,166.453L38.282,167.469C38.061,168.487 37.84,169.506 37.62,170.525C37.36,169.897 37.101,169.27 36.841,168.642L37.237,168.413C37.605,167.76 37.972,167.106 38.339,166.453Z" style="fill:rgb(146,178,175);fill-opacity:0.35;"/>
                <path d="M12.107,149.357C12.546,152.65 11.312,152.364 11.261,152.486C11.236,150.743 10.992,150.678 12.107,149.357Z" style="fill:rgb(127,146,143);fill-opacity:0.1;"/>
                <path d="M41.966,214.29C41.66,215.717 41.807,216.624 40.201,215.898L41.966,214.29Z" style="fill:rgb(157,224,220);"/>
                <path d="M98.539,253.841C96.001,254.375 96.116,254.399 93.499,254.529C96.058,253.937 95.949,253.898 98.539,253.841Z" style="fill:rgb(117,159,165);fill-opacity:0.3;"/>
                <path d="M32.407,184.498C33.193,186.4 33.194,186.419 32.656,188.439C32.573,187.125 32.49,185.811 32.407,184.498Z" style="fill:rgb(95,116,116);fill-opacity:0.1;"/>
                <path d="M11.317,187.506C11.609,188.541 11.901,189.577 12.194,190.613C11.034,189.335 11.275,189.263 11.317,187.506Z" style="fill:rgb(123,141,139);fill-opacity:0.13;"/>
                <path d="M10.379,127.783C13.402,128.041 13.266,128.772 13.364,128.814L12.384,128.852C11.196,128.667 11.301,128.608 10.379,127.783Z" style="fill:rgb(115,135,131);fill-opacity:0.17;"/>
                <path d="M127.725,255.709C127.56,255.867 126.692,256.696 125.699,257.709C125.852,255.723 126.288,255.822 127.725,255.709Z" style="fill:rgb(103,118,116);fill-opacity:0.13;"/>
                <path d="M108.786,246.694C107.816,247.797 107.842,247.77 106.481,248.378C107.507,247.3 107.475,247.425 108.786,246.694Z" style="fill:rgb(132,161,163);fill-opacity:0.33;"/>
                <path d="M56.184,119.282C55.555,120.57 55.616,120.484 54.754,121.631C55.231,120.848 55.707,120.065 56.184,119.282Z" style="fill:rgb(104,139,138);fill-opacity:0.17;"/>
                <path d="M50.668,151.562C50.895,152.174 51.121,152.785 51.348,153.396C51.15,153.795 50.951,154.193 50.753,154.592C50.564,152.669 50.556,152.682 50.548,152.516C50.525,151.98 50.69,152.08 50.668,151.562Z" style="fill:rgb(130,167,155);fill-opacity:0.23;"/>
                <path d="M10.833,154.637C11.062,156.133 10.824,156.017 10.236,157.484C10.402,155.979 10.376,156.052 10.833,154.637Z" style="fill:rgb(114,139,131);fill-opacity:0.14;"/>
                <path d="M65.069,246.299L65.489,247.496L65.473,248.505L65.493,249.503C65.006,247.931 64.981,248.009 65.069,246.299Z" style="fill:rgb(116,149,151);fill-opacity:0.27;"/>
                <path d="M59.376,256.695L60.351,256.684C60.64,257.025 60.93,257.366 61.219,257.707C60.605,257.37 59.99,257.032 59.376,256.695Z" style="fill:rgb(47,63,61);fill-opacity:0.11;"/>
                <path d="M123.642,242.412C124.169,243.438 124.123,243.375 124.363,244.543C124.123,243.833 123.882,243.123 123.642,242.412Z" style="fill:rgb(72,97,112);fill-opacity:0.38;"/>
                <path d="M129.879,236.252C130.133,236.984 130.388,237.717 130.642,238.45C130.388,237.717 130.133,236.984 129.879,236.252Z" style="fill:rgb(92,150,151);"/>
                <path d="M30.668,222.949C30.575,222.98 29.501,223.341 29.501,223.341C28.869,222.599 29.821,223.233 30.668,222.949Z" style="fill:rgb(139,179,175);fill-opacity:0.61;"/>
            </g>
        </g>
    </g>
</svg>
